<?xml version="1.0" standalone="no"?>
<!DOCTYPE svg PUBLIC "-//W3C//DTD SVG 1.1//EN" "http://www.w3.org/Graphics/SVG/1.1/DTD/svg11.dtd" >
<!--
2013-9-30: Created.
-->
<svg>
<metadata>
Created by iconfont
</metadata>
<defs>

<font id="iconfont" horiz-adv-x="1024" >
  <font-face
    font-family="iconfont"
    font-weight="500"
    font-stretch="normal"
    units-per-em="1024"
    ascent="896"
    descent="-128"
  />
    <missing-glyph />
    
    <glyph glyph-name="yab_department" unicode="&#58910;" d="M533.333 469.333h256V256h-42.667V426.667H533.333V256h-42.667V426.667H277.333V256h-42.667V469.333h256v85.333h-64V725.333h170.667v-170.667h-64v-85.333zM170.667 256h170.667v-170.667H170.667V256z m256 0h170.667v-170.667H426.667V256z m256 0h170.667v-170.667H682.667V256z"  horiz-adv-x="1024" />

    
    <glyph glyph-name="yab_edit" unicode="&#58911;" d="M782.693 620.373l-422.4-422.4L209.68 167.67999999999995l30.293 150.613 422.4 422.4zM127.333 85.33299999999997h768v-51.2h-768z"  horiz-adv-x="1024" />

    
    <glyph glyph-name="yab_add" unicode="&#58912;" d="M149.483 418.952h725.333v-56.889H149.483zM483.57 27.841000000000008V753.174h56.889v-725.333z"  horiz-adv-x="1024" />

    
    <glyph glyph-name="yab_search" unicode="&#58913;" d="M694.066 243.41099999999994l238.999-237.43-29.331-29.331-238.212 236.648C608.432 160.36199999999997 531.995 128 448 128c-176.731 0-320 143.269-320 320s143.269 320 320 320 320-143.269 320-320c0-77.805-27.768-149.125-73.934-204.589zM448 170.66700000000003c153.167 0 277.333 124.166 277.333 277.333S601.167 725.333 448 725.333 170.667 601.1669999999999 170.667 448 294.833 170.66700000000003 448 170.66700000000003z"  horiz-adv-x="1024" />

    
    <glyph glyph-name="yab_shrink" unicode="&#58914;" d="M213.333 640h597.333v-42.667H213.333zM384 426.667h426.667V384H384zM213.333 396.8l102.4-85.333V482.133zM213.333 213.33399999999995h597.333v-42.667H213.333z"  horiz-adv-x="1024" />

    
    <glyph glyph-name="yab_signout" unicode="&#58915;" d="M811.667 554.6669999999999v128H214.333v-597.333h597.333v128H769V128H257V640h512v-85.333h42.667zM385 405.334h384v-42.667H385zM667.51 473.296l30.17 30.17 120.68-120.68-120.68-120.68-30.17 30.17 90.51 90.51-90.51 90.51z"  horiz-adv-x="1024" />

    
    <glyph glyph-name="yab_arrow" unicode="&#58917;" d="M271.098 556.56l-56.764-56.765L513 201.12800000000004l298.666 298.667-56.764 56.764L513 314.65599999999995 271.098 556.56z"  horiz-adv-x="1024" />

    
    <glyph glyph-name="yab_save" unicode="&#58918;" d="M434.433 106.12400000000002L132.737 407.821l36.204 36.203 301.696-301.696zM444.682 110.60500000000002l-36.204 36.203 452.544 452.544 36.204-36.203z"  horiz-adv-x="1024" />

    
    <glyph glyph-name="yab_cancel" unicode="&#58919;" d="M292.939 125.71799999999996l-36.204 36.203L736.734 641.92l36.203-36.204zM256.704 606.048l36.204 36.204 479.998-479.999-36.203-36.203z"  horiz-adv-x="1024" />

    
    <glyph glyph-name="yab_home" unicode="&#58921;" d="M170.667 277.33299999999997v-64h682.667V682.667H170.667V320h682.667v-42.667H170.667zM490.667 213.33299999999997h42.667V128h-42.667zM341.333 128h341.333v-42.667H341.333z"  horiz-adv-x="1024" />

    
    <glyph glyph-name="yab_task" unicode="&#58926;" d="M510 384.5c2.5 0 4.8-0.5 7-1.4v-2.8h-14v2.8c2.2 0.9 4.5 1.4 7 1.4z m-3.4 5.6v3.6h6.8v-3.6c0-2.2-1.4-4-3.4-4.5-2 0.5-3.4 2.3-3.4 4.5zM232.7 707h554.7v-640H232.7V707z m46.2-42.7v-554.7h462.2V664.3H278.9zM403.3 536.3h298.7v-42.7H403.3zM339.3 515m-21.3 0a21.3 21.3 0 1 1 42.6 0 21.3 21.3 0 1 1-42.6 0ZM403.3 408.3h298.7v-42.7H403.3zM339.3 387m-21.3 0a21.3 21.3 0 1 1 42.6 0 21.3 21.3 0 1 1-42.6 0ZM403.3 280.29999999999995h298.7v-42.7H403.3zM339.3 259m-21.3 0a21.3 21.3 0 1 1 42.6 0 21.3 21.3 0 1 1-42.6 0Z"  horiz-adv-x="1024" />

    
    <glyph glyph-name="yab_edit_line" unicode="&#58936;" d="M822.784 619.008l-155.648 155.648-445.44-445.44-39.424-195.072 195.072 39.424 445.44 445.44zM246.272 198.65599999999995l21.504 106.496 306.176 306.176-34.304 34.304 35.328 35.328 34.304-34.304 57.856 57.856L752.128 619.52l-57.856-57.856 34.816-34.816-35.328-35.328-34.816 34.816L352.768 220.15999999999997c0-0.512-106.496-21.504-106.496-21.504z m-117.248-114.688h768v-51.2h-768v51.2zM693.248 491.008l35.328 35.328-34.816 34.816-84.992 84.992-34.304 34.304-35.328-35.328 34.304-34.304 84.992-84.992 34.816-34.816z"  horiz-adv-x="1024" />

    
    <glyph glyph-name="yab_user" unicode="&#58937;" d="M512.7 277.79999999999995h0.1c105.7 0 206.5-20.6 298.8-57.8v-120.2H214.3V220.20000000000005c92.2 37.1 192.8 57.6 298.2 57.6h0.2z m0.4 43.7l-0.1 0.1-0.1-0.1C428.7 345.29999999999995 367 422.7 367 514.5V667.2h292v-152.7c0-91.8-61.7-169.2-145.9-193zM512.7 277.79999999999995h0.1c105.7 0 206.5-20.6 298.8-57.8v-120.2H214.3V220.20000000000005c92.2 37.1 192.8 57.6 298.2 57.6h0.2z m0.4 43.7l-0.1 0.1-0.1-0.1C428.7 345.29999999999995 367 422.7 367 514.5V667.2h292v-152.7c0-91.8-61.7-169.2-145.9-193z"  horiz-adv-x="1024" />

    
    <glyph glyph-name="yab_user_line" unicode="&#58938;" d="M512.8 227.79999999999995c85.5 0 169.1-14.3 248.9-42.4v-35.6H264.3v35.8c79.6 28 162.9 42.2 248.2 42.2H512.8m0 50h-0.2c-105.4 0-206.1-20.5-298.2-57.6v-120.4h597.3V219.89999999999998c-92.4 37.3-193.2 57.9-298.9 57.9zM608 615.2v-102.7c0-33.4-10.7-65.1-31-91.5-16.8-21.8-39.5-38.8-64.9-48.7-25.5 10-48.1 26.9-64.9 48.7-20.3 26.4-31 58.1-31 91.5V615.2H608m50 50H366v-152.7c0-91.8 61.8-169.1 146-192.9 84.2 23.8 146 101.1 146 192.9V665.2z"  horiz-adv-x="1024" />

    
    <glyph glyph-name="yab_required" unicode="&#58940;" d="M560.038 167.40599999999995c0-24.853-20.147-45-45-45s-45 20.147-45 45v440c0 24.853 20.147 45 45 45s45-20.147 45-45v-440zM730.664 324.71400000000006c21.99-11.58 30.429-38.794 18.849-60.784-11.58-21.99-38.794-30.429-60.784-18.849L299.411 450.098c-21.99 11.58-30.429 38.794-18.849 60.784 11.58 21.99 38.794 30.429 60.784 18.849l389.318-205.017zM688.97 526.4359999999999c22.01 11.543 49.209 3.058 60.752-18.952s3.058-49.209-18.952-60.752L341.105 242.37599999999998c-22.01-11.543-49.209-3.058-60.752 18.952s-3.058 49.209 18.952 60.752L688.97 526.4359999999999z"  horiz-adv-x="1024" />

    
    <glyph glyph-name="yab_arrow_two" unicode="&#58941;" d="M302.6 338.79999999999995l-47.3 47.3L504.2 635l248.9-248.9-47.3-47.3-201.6 201.6-201.6-201.6zM302.6 125.39999999999998l-47.3 47.3 248.9 248.9 248.9-248.9-47.3-47.3L504.2 327 302.6 125.39999999999998z"  horiz-adv-x="1024" />

    
    <glyph glyph-name="yab_arrow1" unicode="&#58995;" d="M435.437197 74.944417c42.110542-46.669518 110.885094-46.109643 152.48575 0l382.714039 424.194722c84.391045 93.528993 50.57864 169.351962-74.473273 169.351962H127.176435c-125.521807 0-159.464183-75.15312-74.473273-169.351962z"  horiz-adv-x="1024" />

    
    <glyph glyph-name="web_operation" unicode="&#59004;" d="M171.502517 681.879102h681.99399v-468.882107H171.502517zM320.686829 511.37561v-170.503493h42.628371V511.37561z m340.996995 0v-170.503493H704.312195V511.37561z m-170.493502 85.246751v-255.750244h42.628371v255.750244zM491.190322 212.996995h42.628371V127.750244h-42.628371zM341.99602 127.750244h340.996995v-42.628371H341.99602z"  horiz-adv-x="1024" />

    
    <glyph glyph-name="yab_h5_add_contact_" unicode="&#59009;" d="M512-127.99897199999998a510.986179 510.986179 0 0 0-198.857723 981.559885 510.995164 510.995164 0 0 0 397.715446-941.426944 507.671717 507.671717 0 0 0-198.857723-40.132941z m0 985.782828a475.046232 475.046232 0 0 1-184.851127-912.535219A475.049227 475.049227 0 0 1 696.851127 820.466212 471.931437 471.931437 0 0 1 512 857.783856zM253.382132 405.67929h517.235736v-36.508996h-517.235736zM493.65066 128.80193299999996v517.235736h36.508997v-517.235736h-36.508997z"  horiz-adv-x="1024" />

    
    <glyph glyph-name="yab_login" unicode="&#58885;" d="M796.79 208.12C615.21 275.79 409 276 227.21 208.33l-13.87-5.17v-117.83h597.33V202.92zM768 128H256v45.37c163.54 57.42 347.83 57.46 512-0.21zM505.71 303.87l6.33-2 6.35 2C601.88 329.92 658 405 658 490.73V640H366v-149.27c0-85.73 56.15-160.86 139.71-186.86z m-97 293.46h206.6v-106.6c0-64.77-41.21-121.83-103.25-144-62.1 22.15-103.35 79.21-103.35 144zM641.32 321.08v-42.66h167.11l-85.33 85.33v-42.67h-81.78z"  horiz-adv-x="1024" />

    
    <glyph glyph-name="yab_h5_add" unicode="&#58886;" d="M870.4 25.600000000000023H153.6V640H357l103.23-51.32H870.4z m-665.6 51.2h614.4V537.47h-371L345 588.8H204.8zM358.4 332.79999999999995h307.2v-51.2H358.4zM537.6 460.8v-307.2h-51.2V460.8z"  horiz-adv-x="1024" />

    
    <glyph glyph-name="yab_refresh" unicode="&#58887;" d="M208.87 192.70000000000005C272.37 92.27999999999997 384.4 25.600000000000023 512 25.600000000000023c197.94 0 358.4 160.46 358.4 358.4q0 6.43-0.22 12.8h-51.24q0.26-6.37 0.26-12.8c0-169.66-137.54-307.2-307.2-307.2-113.35 0-212.36 61.39-265.6 152.73l66.11 64.87H153.6v-155.93z m596.89 396.67C741 681.9 633.54 742.4 512 742.4c-193.65 0-351.44-153.59-358.18-345.6h51.24C211.77 560.53 346.63 691.2 512 691.2c107.51 0 202.12-55.22 257-138.85l-52.74-53.15h153.93V654.3z"  horiz-adv-x="1024" />

    
    <glyph glyph-name="yab_h5_upload" unicode="&#58888;" d="M819.2 307.20000000000005h51.2v-256h-51.2zM153.6 51.200000000000045v256h51.2v-256M153.6 102.39999999999998h716.8v-51.2H153.6zM486.4 685.81h51.2v-409.6h-51.2zM403.44 535.87l108.61 108.62 108.42-108.43 36.2 36.21-108.42 108.42-36.11 36.11-36.2-36.2-108.61-108.61 36.11-36.12z"  horiz-adv-x="1024" />

    
    <glyph glyph-name="yab_download" unicode="&#58889;" d="M819.2 307.20000000000005h51.2v-256h-51.2zM153.6 51.200000000000045v256h51.2v-256M153.6 102.39999999999998h716.8v-51.2H153.6zM486.4 716.8h51.2v-409.6h-51.2zM620.56 457.14L511.95 348.53 403.53 456.95l-36.2-36.2 108.42-108.43 36.11-36.11 36.2 36.21 108.61 108.61-36.11 36.11z"  horiz-adv-x="1024" />

    
    <glyph glyph-name="yab_delete_border" unicode="&#58890;" d="M742.4 25.600000000000023H256v512h51.2v-460.8h409.6V537.6H768v-512zM153.6 640h716.8v-51.2H153.6z m307.2-153.6V128h-51.2V486.4z m153.6 0V128h-51.2V486.4z m-204.8 256h204.8v-51.2H409.6z"  horiz-adv-x="1024" />

    
    <glyph glyph-name="yab_h5_edit" unicode="&#58891;" d="M153.6 84.03999999999996h716.8v-51.2H153.6zM686.39 735.16L251.94 300.71000000000004l-35.2-181.95 180 37.12 434.48 434.46z m72.42-144.83l-37.91-37.91-72.42 72.43 37.91 37.91z m-387.4-387.4l-89.82-18.52 17.65 91.2 313 313 72.42-72.43z"  horiz-adv-x="1024" />

    
    <glyph glyph-name="yab_note" unicode="&#58894;" d="M512 640a256 256 0 1 0-256-256 256 256 0 0 0 256 256m0 42.666667a298.666667 298.666667 0 1 1 298.666667-298.666667 298.666667 298.666667 0 0 1-298.666667 298.666667zM484.266667 438.186667h55.466666v-213.333334h-55.466666zM484.266667 543.146667h55.466666v-55.466667h-55.466666z"  horiz-adv-x="1024" />

    
    <glyph glyph-name="yab_resources_" unicode="&#59010;" d="M490 709.2l382.15-219.03L490 264.67999999999995 107.85 490.17 490 709.2zM853.45 400.09L490 185.64 126.55 400.09h72.69L490 228.52999999999997l290.76 171.56zM853.45 314.76L490 100.30999999999995 126.55 314.76h72.69L490 143.20000000000005l290.76 171.56z"  horiz-adv-x="1024" />

    
    <glyph glyph-name="yab_h5_full_screen" unicode="&#58895;" d="M292.39 645.84H460.8v51.2h-256v-256H256V609.8199999999999l165.49-165.49 36.2 36.21-165.3 165.3zM256 170.23000000000002v168.6h-51.2v-256h256v51.2H292.2l165.49 165.49-36.2 36.2L256 170.23000000000002zM768 697.23H563.2v-51.2h168.6L566.31 480.54l36.2-36.21L768 609.8199999999999v-168.59h51.2v256H768zM731.61 134.22000000000003H563.2v-51.21h256v256H768v-168.78L602.51 335.72l-36.2-36.2 165.3-165.3z"  horiz-adv-x="1024" />

    
    <glyph glyph-name="yab_h5_shrink" unicode="&#58896;" d="M413.99 518.02L215.4 716.61l-36.2-36.2 198.4-198.4H209.19v-51.2h256v256h-51.2v-168.79zM179.2 87.39999999999998l36.2-36.2 198.59 198.59v-168.6h51.2v256h-256v-51.2h168.6L179.2 87.39999999999998zM610.01 430.81h204.8v51.2h-168.6L844.8 680.6l-36.2 36.2-198.59-198.59v168.6h-51.2v-256h51.2zM610.01 249.98000000000002L808.6 51.389999999999986l36.2 36.2-198.4 198.4h168.41v51.2h-256v-256h51.2V249.98000000000002z"  horiz-adv-x="1024" />

    
    <glyph glyph-name="yab_h5_send" unicode="&#58897;" d="M527.393 435.6l36.204-36.204-289.63-289.63-36.205 36.203zM264.916 390.355l36.204-36.204L192.508 245.53999999999996l-36.203 36.204zM482.136 173.11599999999999l36.204-36.204L409.728 28.299999999999955l-36.203 36.204zM415.14 395.76L310.81 500.1l475.93 158.64L628.1 182.79999999999995 523.76 287.15l-36.21-36.21 162.92-162.92 217.22 651.67-651.67-217.22 162.92-162.92 36.2 36.21z"  horiz-adv-x="1024" />

    
    <glyph glyph-name="yab_h5_windows" unicode="&#58898;" d="M400.79 314.39v-150.46L230.4 187.41999999999996v127h170.39m51.2 51.2H179.2v-222.8L452 105.19000000000005v260.4zM400.79 604.05v-153.66H230.4V580.5699999999999l170.39 23.49M452 662.8l-272.8-37.6v-226H452V662.8zM793.6 314.39v-204.45l-260.4 35.89V314.39h260.4m51.2 51.2H482V101.20000000000005l362.8-50V365.59000000000003zM793.6 658.06V450.4H533.2V622.1800000000001l260.4 35.88m51.2 58.74l-362.8-50v-267.6h362.8V716.8z"  horiz-adv-x="1024" />

    
    <glyph glyph-name="yab_h5_refresh" unicode="&#58899;" d="M665.98 409.6l108.61-108.61L883.2 409.6H665.98zM654.57 163.67999999999995a283.92 283.92 0 0 0-181-64.93c-157.29 0-285.26 128-285.26 285.26s128 285.26 285.26 285.26S758.86 541.29 758.86 384c0-6.14-0.54-12.15-0.92-18.2l33.38 25.06 14.46-19.26c0.15 4.15 0.63 8.22 0.63 12.41 0 183.8-149 332.8-332.8 332.8S140.8 567.8 140.8 384s149-332.8 332.8-332.8a331.29 331.29 0 0 1 209.56 74.4z"  horiz-adv-x="1024" />

    
    <glyph glyph-name="yab_h5_font" unicode="&#58900;" d="M332.8 204.79999999999995H230.4V665.6h460.8v-102.4h51.2V716.8H179.2v-563.2h153.6v51.2zM281.6 614.4v-563.2h563.2V614.4z m512-512H332.8V563.2h460.8zM435.2 460.8h256v-51.2h-256zM588.8 460.8v-256h-51.2v256z"  horiz-adv-x="1024" />

    
    <glyph glyph-name="yab_h5_document" unicode="&#58901;" d="M281.6 614.4v-563.2h563.2V614.4z m512-512H332.8V563.2h460.8zM332.8 460.8h460.8v-51.2H332.8zM332.8 204.79999999999995H230.4V665.6h460.8v-102.4h51.2V716.8H179.2v-563.2h153.6v51.2z"  horiz-adv-x="1024" />

    
    <glyph glyph-name="yab_h5_command" unicode="&#58902;" d="M317.99 153.60000000000002l72.22 72.22 36.11 36.11-36.2 36.2-72.41 72.41-36.11-36.11 72.41-72.41-72.22-72.22 36.2-36.2zM415.16 204.79999999999995h153.6v-51.2h-153.6zM742.4 358.4v-256h-512v512h307.2v51.2H179.2v-614.4H793.6V409.6h-51.2v-51.2zM823.55 588.8a101.4 101.4 0 0 1-4.11 27.2l25.36 14.64L819.2 675l-25.06-14.5a102.07 102.07 0 0 1-47.39 27.08V716.8h-51.2v-29.22a102.06 102.06 0 0 1-47.39-27.08L623.1 675l-25.6-44.34L622.86 616a91.9 91.9 0 0 1 0-54.37L597.5 547l25.6-44.34 25.06 14.47A102.06 102.06 0 0 1 695.55 490v-29.2h51.2V490a102.07 102.07 0 0 1 47.39 27.08l25.06-14.47L844.8 547l-25.36 14.64a101.4 101.4 0 0 1 4.11 27.16z m-102.4-51.2a51.2 51.2 0 1 0 51.2 51.2 51.2 51.2 0 0 0-51.2-51.2z"  horiz-adv-x="1024" />

    
    <glyph glyph-name="yab_h5_letter" unicode="&#58903;" d="M333.43 250.88H307.2v61.44h53.7L512 650.42l151.1-338.1h53.7v-61.44h-26.23l89.24-199.68h67.29L549.63 716.8h-75.25L176.9 51.200000000000045h67.29l89.24 199.68zM663.1 312.32000000000005H360.9l-27.47-61.44h357.14l-27.47 61.44zM716.8 250.88v61.44h-53.7l27.47-61.44h26.23zM307.2 312.32000000000005v-61.44h26.23l27.47 61.44h-53.7z"  horiz-adv-x="1024" />

    
    <glyph glyph-name="yab_h5_cloudhost_file" unicode="&#58904;" d="M480.91 327.30999999999995a83.68 83.68 0 0 0 83.53-80.68l-0.09-0.64-0.05-3.43-0.63-42.48 41.64-8.45a45.05 45.05 0 0 0-8.87-89.23H249.87a45 45 0 0 0-8.13 89.23l35.75 6.65 5.5 35.95a63.71 63.71 0 0 0 63.15 54.58c5.73 0 11.94-1.14 19.55-3.6l31.45-10.15 22.2 24.48c16.24 17.91 38.11 27.77 61.58 27.77m0 51.2c-39.6 0-74.85-17.39-99.51-44.58-11.18 3.61-22.89 6.07-35.27 6.07-57.82 0-105.28-42.6-113.76-98-44.65-8.31-78.78-47.53-78.78-94.49 0-52.95 43.32-96.27 96.27-96.27h346.57c52.95 0 96.27 43.32 96.27 96.27 0 46.42-33.31 85.42-77.21 94.33 0 0.66 0.2 1.27 0.2 1.94a134.78 134.78 0 0 1-134.79 134.73zM729.6 179.20000000000005m-25.6 0a25.6 25.6 0 1 1 51.2 0 25.6 25.6 0 1 1-51.2 0ZM729.6 384m-25.6 0a25.6 25.6 0 1 1 51.2 0 25.6 25.6 0 1 1-51.2 0ZM729.6 588.8m-25.6 0a25.6 25.6 0 1 1 51.2 0 25.6 25.6 0 1 1-51.2 0ZM204.8 716.8V232a95.5 95.5 0 0 0 27.58 10 115.45 115.45 0 0 0 34 65.24H256V460.8h563.2v-153.6H599.13a133.13 133.13 0 0 0 15.33-51.2H819.2v-153.6H680.92c-16.27-30.27-47.89-51.2-84.48-51.2h274V716.8zM819.2 512H256V665.6h563.2z"  horiz-adv-x="1024" />

    
    <glyph glyph-name="yab_h5_upload_diskfile" unicode="&#58906;" d="M307.2 204.79999999999995h153.6v-51.2H307.2zM588.8 179.20000000000005m-25.6 0a25.6 25.6 0 1 1 51.2 0 25.6 25.6 0 1 1-51.2 0ZM691.2 179.20000000000005m-25.6 0a25.6 25.6 0 1 1 51.2 0 25.6 25.6 0 1 1-51.2 0ZM768 716.8H256L153.6 307.20000000000005v-256h716.8v256z m-470-51.2h428l81.92-358.4H216.06z m521.2-563.2H204.8V256h614.4zM612.42 376.20000000000005H411.58a71.09 71.09 0 0 0-23.15 138.32c11.25 40 49.82 67.42 94.82 58a93.18 93.18 0 0 0 155.1-59 71.13 71.13 0 0 0-25.93-137.32zM467.35 543.5699999999999a51.18 51.18 0 0 1-50.75-43.8L414.95 489l-10.72-2a40.38 40.38 0 0 1 7.35-80.1h200.84a40.43 40.43 0 0 1 8 80.07l-12.27 2.5V502c0.1 35.7-28.05 63.87-62.65 63.87a62 62 0 0 1-46.3-20.8l-6.65-7.32-9.42 3a51.84 51.84 0 0 1-15.78 2.82z"  horiz-adv-x="1024" />

    
    <glyph glyph-name="yab_h5_upload_hostfile" unicode="&#58907;" d="M358.4 102.39999999999998h307.2v-51.2H358.4zM537.6 204.79999999999995v-153.6h-51.2V204.79999999999995zM819.2 665.6V256H204.8V665.6h614.4m51.2 51.2H153.6v-512h716.8v512z"  horiz-adv-x="1024" />

    
    <glyph glyph-name="yab_h5_hostnetwork_disk" unicode="&#58920;" d="M307.2 204.79999999999995h153.6v-51.2H307.2zM588.8 179.20000000000005m-25.6 0a25.6 25.6 0 1 1 51.2 0 25.6 25.6 0 1 1-51.2 0ZM691.2 179.20000000000005m-25.6 0a25.6 25.6 0 1 1 51.2 0 25.6 25.6 0 1 1-51.2 0ZM768 716.8H256L153.6 307.20000000000005v-256h716.8v256z m-470-51.2h428l52.67-230.4H245.31z m510-358.4H216.06l17.55 76.8h556.78z m11.2-204.8H204.8V256h614.4z"  horiz-adv-x="1024" />

    
    <glyph glyph-name="yab_h5_instruction_positioning" unicode="&#58922;" d="M810.67 640m-21.33 0a21.33 21.33 0 1 1 42.66 0 21.33 21.33 0 1 1-42.66 0ZM810.67 832c-106 0-192-86-192-192s86-192 192-192 192 86 192 192-85.96 192-192 192zM832 492.82v61.85h-42.67v-61.84a148.78 148.78 0 0 0-125.84 125.84h61.84v42.66h-61.84a148.78 148.78 0 0 0 125.84 125.85v-61.84H832v61.84a148.78 148.78 0 0 0 125.84-125.85H896v-42.67h61.84A148.78 148.78 0 0 0 832 492.82zM179.66 64l120.52 120.52 30.09 30.09-30.16 30.17-120.69 120.68-30.09-30.09 120.68-120.68-120.52-120.52L179.66 64zM324.12 106.66999999999996h256V64h-256zM874.67 320v-341.33H64V704h469.33v42.67h-512V-64h896V362.66999999999996h-42.66V320zM64 618.6700000000001h469.33V576H64z"  horiz-adv-x="1024" />

    
    <glyph glyph-name="yab_h5_playlist" unicode="&#58925;" d="M938.67 746.67v-725.34H85.33V746.67h853.34m42.67 42.67H42.67v-810.67h938.66V789.33zM810.67 405.33H213.33v-42.66h597.34v42.66zM810.67 576H213.33v-42.67h597.34V576zM746.67 234.66999999999996H213.33V192h533.34v42.67zM720.16 122.82000000000005l90.51 90.51-90.51 90.51v-181.02z"  horiz-adv-x="1024" />

    
    <glyph glyph-name="yab_h5_share" unicode="&#58928;" d="M853.46 170.67999999999995q-5 0-10-0.39c-40.56-3.14-74.78-25.18-95.87-56.48L292.33 346.16999999999996c3.74 12 6.34 24.57 6.34 37.83 0 12.52-2.36 24.37-5.71 35.8L754 645.52c23.46-29.16 59-48.18 99.34-48.18a129.84 129.84 0 1 1-120.21 85.48L274.55 458.3c-23.22 32.41-61 53.7-103.89 53.7a128 128 0 1 1 0-256c42.13 0 79.19 20.62 102.51 52L730 74.88c-3.51-13.42-5.41-27.46-4.28-42.07a128 128 0 0 1 127.46-118.14q5 0 10 0.39a128 128 0 0 1-9.73 255.62z m-0.13 640a85.61 85.61 0 1 0-81.59-108.95 84.18 84.18 0 0 0-3.74 23.6 85.43 85.43 0 0 0 85.33 85.34z m-599.4-444.9a84.77 84.77 0 0 0-19.53-37.94c-15.65-17.74-38.28-29.17-63.73-29.17a85.33 85.33 0 1 0 0 170.67c26 0 49-11.9 64.63-30.26a83.13 83.13 0 0 0 18.64-73.31z m606-408.18q-3.38-0.26-6.72-0.26c-44.21 0-81.52 34.6-84.94 78.76a86.22 86.22 0 0 0 78.51 91.66q3.38 0.26 6.72 0.26c44.22 0 81.53-34.6 84.94-78.76a85.43 85.43 0 0 0-78.54-91.67z"  horiz-adv-x="1024" />

    
    <glyph glyph-name="yab_h5_type" unicode="&#58924;" d="M640 422.4h256V384H640zM640 294.4h256V256H640zM640 166.39999999999998h256V128H640zM768 768H128l192-307.2V128l90.51-87.63 27.15 27.15-79.26 76.74V471.81L197.28 729.6h501.44L537.6 471.82V0H576V460.81L768 768z"  horiz-adv-x="1024" />

    
    <glyph glyph-name="yab_h5_breakoff" unicode="&#59011;" d="M517.23 617.1q1.77 1.88 3.61 3.71A170.67 170.67 0 1 0 762.2 379.45000000000005q-1.84-1.84-3.71-3.61l-30.19 30.19q1.89 1.75 3.73 3.59a128 128 0 1 1-181 181q-1.84-1.84-3.59-3.73zM547.35 586.98l-30.17 30.17-90.51-90.51 30.17-30.17z m181-181l30.17-30.17L668 285.28l-30.17 30.17zM520.15 137.51999999999998q-1.77-1.88-3.61-3.71a170.678 170.678 0 1 0-241.35 241.4q1.84 1.84 3.71 3.61l30.19-30.19q-1.89-1.75-3.73-3.59a128 128 0 1 1 181-181q1.84 1.84 3.59 3.73zM490 167.64l30.17-30.17 90.51 90.51-30.17 30.17z m-181 181l-30.17 30.17 90.51 90.51 30.19-30.11zM384 682.67h42.67v-128H384zM205.533 478.902l5.974 42.243 126.72-17.92-5.974-42.243zM258.158 608.483l30.694 29.641 88.916-92.075-30.694-29.641zM618.67 213.33000000000004h42.67v-128h-42.67zM707.707 263.65200000000004l5.974 42.244 126.72-17.92-5.974-42.244zM667.566 221.95000000000005l30.694 29.64 88.917-92.075-30.695-29.64z"  horiz-adv-x="1024" />

    
    <glyph glyph-name="yab_h5_cad" unicode="&#58927;" d="M347.55 291.25h-29.5l-65.85-172.9h34.25l15.65 44.52h60.55l16.57-44.52h34.18z m-15.28-44.5l20.1-55.25h-40zM179.2 358.4v-307.2h307.2V358.4z m263.68-263.68H222.72V314.88h220.16zM736.27 268.46000000000004c-17.22 15.12-39 22.8-64.87 22.8h-51.53v-172.9h49.85c27 0 49.4 8.12 66.67 24.15s26.13 37.8 26.13 64.35c0 25.57-8.83 46.3-26.25 61.6z m-6-62.13c0-18.77-5.33-33.48-15.83-43.67s-25.6-15.48-44.77-15.48h-18.5V262.30999999999995h19.45c18 0 32.7-4.73 43.6-14.08s16-23 16-41.9zM801.28 314.88v-220.16H581.12V314.88h220.16m43.52 43.52H537.6v-307.2h307.2V358.4zM539.2 623.22a73.25 73.25 0 0 0 35.85-9l7.6-4.2V644l-3.08 1.35c-10.73 4.68-24.37 7.05-40.58 7.05-25.47 0-46.8-8.58-63.4-25.47s-25-39.35-25-66.8c0-25.6 7.5-46.55 22.3-62.25S507.8 474 532.48 474c18.83 0 34.77 3.37 47.43 10.05l2.75 1.42v32.4l-7.8-4.75c-11-6.75-24.27-10.17-39.32-10.17-15.87 0-28.33 5.07-38.05 15.52s-14.57 24.85-14.57 42.87c0 19.1 5.28 34.35 15.73 45.35s23.75 16.53 40.55 16.53zM626.71 673.28v-220.16H406.54V673.28h220.17m43.52 43.52H363v-307.2h307.2V716.8z"  horiz-adv-x="1024" />

    
    <glyph glyph-name="yab_h5_batch_login" unicode="&#58929;" d="M896 810.67H256v-85.34h42.67V768H896v-640h-42.66v-42.67h85.33V810.67H896zM768 0H128v85.34H85.33v-128H128v-0.01h682.67V640H768v-640zM128 682.67H85.33v-128H128V640h682.67v42.67H128zM224 298.66999999999996h198.81l-69.06-69.06 30.17-30.17 90.35 90.35 30.09 30.09-30.17 30.17-90.51 90.51-30.09-30.09 69.13-69.13H85.33v-42.67H224z"  horiz-adv-x="1024" />

    
    <glyph glyph-name="yab_h5_file" unicode="&#59012;" d="M844.8 102.39999999999998H179.2V665.6h188.87l95.85-47H844.8z"  horiz-adv-x="1024" />

    
    <glyph glyph-name="yab_h5_photo" unicode="&#59013;" d="M614.19 691.2H256v-614.4h512V537.6z m-179-204.8a25.6 25.6 0 1 0-25.6-25.6 25.6 25.6 0 0 0 25.61 25.6z m64-256H345.6L422.4 339l25.38-35.9 94.94 132.1 147.2-204.8zM768 537.6H614.4V691.2"  horiz-adv-x="1024" />

    
    <glyph glyph-name="yab_h5_excle" unicode="&#59014;" d="M614.199609 691.2H256v-614.4h512V537.6z m-48.354443-503.403209L526.127593 262.76320899999996c-7.775186 15.12955-15.550372 30.699961-24.978787 49.095891h-1.62317c-8.596791-18.425988-15.971194-33.996399-23.345597-49.095891l-38.475147-74.92634h-50.358356l86.378709 155.513738-81.048298 145.744657h52.803131L481.941292 418.697769c7.354364-13.927202 13.897143-27.45362 22.924775-45.448767h2.003913c7.775186 18.035225 13.49636 31.521566 20.449942 45.448767l35.629589 70.397495h49.947554L531.848767 340.915851l86.79953-153.099021zM768 537.6H614.4V691.2"  horiz-adv-x="1024" />

    
    <glyph glyph-name="yab_h5_link" unicode="&#59015;" d="M614.19 691.2H256v-614.4h512V537.6z m-37.78-409.6l-84.89-84.89a60 60 0 0 0-84.89 84.89l14.15 14.15L442 274.52l-7.07-7.07A30 30 0 1 1 477.37 225l70.74 70.74a30 30 0 0 1-42.45 42.44l-7.07-7.07-21.22 21.22 14.15 14.15a60 60 0 0 0 84.89-84.89zM607.13 384L593 369.85l-21.23 21.22 7.08 7.07a30 30 0 1 1-42.44 42.44l-70.74-70.74a30 30 0 0 1 42.44-42.45l7.07 7.08 21.23-21.22-14.15-14.15a60 60 0 0 0-84.91 84.9l84.89 84.89A60 60 0 0 0 607.13 384zM768 537.6H614.4V691.2"  horiz-adv-x="1024" />

    
    <glyph glyph-name="yab_h5_music" unicode="&#59016;" d="M614.19 691.2H256v-614.4h512V537.6z m15.19-256H527.73v-174.08h-0.41c-2.72-23.13-28.86-45.67-64.82-53.54-41.93-9.17-81.09 5.07-87.48 31.81s22.42 55.85 64.34 65c21.24 4.65 41.73 3.24 57.65-2.71V486.4h132.37zM768 537.6H614.4V691.2"  horiz-adv-x="1024" />

    
    <glyph glyph-name="yab_h5_no" unicode="&#59017;" d="M614.19 691.2H256v-614.4h512V537.6zM486.55 185.12c-20.87 0-36.82 14.33-36.82 36s15.95 35.62 36.82 35.62 37.25-13.92 37.25-35.63-16.37-35.99-37.25-35.99zM507 289.52h-41.72c-11 67.55 68.77 84.75 68.77 129.37 0 24.55-15.15 41.75-45 41.75-21.7 0-40.95-10.25-59.37-30.3l-27 25c23.75 26.2 52.82 44.2 91.7 44.2 50.78 0 85.15-28.22 85.15-76.95-0.05-62.24-81.1-72.89-72.53-133.07zM768 537.6H614.4V691.2"  horiz-adv-x="1024" />

    
    <glyph glyph-name="yab_h5_pdf" unicode="&#59018;" d="M507.3 476.82H468V365.9h40.93c48.32 0 71.25 18.4 71.25 58.12s-24.98 52.8-72.88 52.8zM614.19 691.2H256v-614.4h512V537.6zM513.45 327.83000000000004H468V213.60000000000002h-47.5V514.9h91.3c67.15 0 115-22.92 115-90.88 0.03-65.92-47.8-96.19-113.35-96.19zM768 537.6H614.4V691.2"  horiz-adv-x="1024" />

    
    <glyph glyph-name="yab_h5_txt" unicode="&#59019;" d="M614.19 691.2H256v-614.4h512V537.6z m12.38-241.6h-88.84V188h-47.48V449.6h-88.42v39.7h224.75zM768 537.6H614.4V691.2M768 537.6H614.4V691.2"  horiz-adv-x="1024" />

    
    <glyph glyph-name="yab_h5_video" unicode="&#59020;" d="M614.19 691.2H256v-614.4h512V537.6z m59.09-445.87l-93.62 66.32v-40.29h-230.4V432.64h230.4v-32.49l93.63 58.52zM768 537.6H614.4V691.2"  horiz-adv-x="1024" />

    
    <glyph glyph-name="yab_h5_word" unicode="&#59021;" d="M614.19 691.2H256v-614.4h512V537.6z m-2-477.6H555.7l-28.65 111.35c-5.32 21.3-9.42 41.75-14.32 65.1h-2.05c-4.5-23.35-8.6-44.22-14.32-65.5L468.93 213.60000000000002h-54.45l-61 225.15H401l29.88-122c4.5-21.67 8.17-42.55 12.27-63.85h1.65c4.9 21.3 9.4 42.58 14.73 63.85l31.52 122h43.8l32.35-122c5.33-21.67 9.83-42.55 15.15-63.85H584c4.5 21.3 8.2 42.18 13.1 63.85l29.08 122h44.2zM768 537.6H614.4V691.2"  horiz-adv-x="1024" />

    
    <glyph glyph-name="yab_h5_zip" unicode="&#59023;" d="M460.8 480.07h102.4v-51.2H460.8zM614.19 691.2H512v-31.93h102.4v-51.2H512v-51.2h102.4v-179.2H409.6v128H512v51.2H409.6v51.2H512v38.27H409.6V691.2H256v-614.4h512V691.2H614.19z"  horiz-adv-x="1024" />

    
    <glyph glyph-name="yab_h5_ssh" unicode="&#59026;" d="M841.142857 859.428571h-658.285714a146.285714 146.285714 0 0 1-146.285714-146.285714v-658.285714a146.285714 146.285714 0 0 1 146.285714-146.285714h658.285714a146.285714 146.285714 0 0 1 146.285714 146.285714v658.285714a146.285714 146.285714 0 0 1-146.285714 146.285714zM230.890959 232.50410999999997c-40.639374 0-78.463249 16.031311-105.42591 43.424814l27.353425 32.182857c21.321644-21.321644 50.288219-34.998356 78.854011-34.998356 35.819961 0 55.929237 16.933072 55.929237 41.861761 0 26.962661-20.109276 35.389119-47.4627 47.4627l-41.080235 17.714599c-28.575812 12.023483-60.357886 34.607593-60.357887 77.641644 0 46.681174 41.080235 81.67953 97.360157 81.67953a126.757573 126.757573 0 0 0 89.715225-37.393033l-24.487828-29.798199c-18.496125 16.502231-38.996164 26.53182-65.177299 26.53182-30.178943 0-49.897456-14.468258-49.897456-38.214638 0-25.35953 23.74638-34.998356 47.893542-44.647202l40.639373-17.323836c34.998356-14.88908 60.357886-36.611507 60.357887-80.076399 0-47.442661-39.427006-86.048063-104.213542-86.048062z m237.754364 0c-40.639374 0-78.463249 16.031311-105.42591 43.424814l27.353425 32.182857c21.321644-21.321644 50.288219-34.998356 78.854011-34.998356 35.819961 0 55.929237 16.933072 55.929237 41.861761 0 26.962661-20.109276 35.389119-47.4627 47.4627l-41.080235 17.714599c-28.575812 12.023483-60.357886 34.607593-60.357887 77.641644 0 46.681174 41.080235 81.67953 97.360157 81.67953a126.757573 126.757573 0 0 0 89.715225-37.393033L539.052838 472.282427c-18.496125 16.502231-38.996164 26.53182-65.1773 26.53182-30.178943 0-49.897456-14.468258-49.897456-38.214638 0-25.35953 23.74638-34.998356 47.893542-44.647202l40.639374-17.323836c34.998356-14.88908 60.357886-36.611507 60.357887-80.076399-0.01002-47.442661-39.437025-86.048063-104.223562-86.048062z m380.142466 5.210176h-46.681175V372.497534H675.389119V237.71428600000002h-46.671154V533.8526810000001h46.681174v-120.705753h126.707475V533.8526810000001h46.681175z"  horiz-adv-x="1024" />

    
    <glyph glyph-name="yab_h5_tel" unicode="&#59027;" d="M563.68 458.5c-32.8 0-61.8-25.18-67-71.32h125.5c-0.04 45.18-20.47 71.32-58.5 71.32zM841.14 859.43H182.86A146.28 146.28 0 0 1 36.57 713.14v-658.28a146.28 146.28 0 0 1 146.29-146.29h658.28a146.28 146.28 0 0 1 146.29 146.29V713.14A146.28 146.28 0 0 1 841.14 859.43zM348.59 228.57000000000005h-55.16V532.39h-102.7V578.5h261v-46.11H348.59z m318.27 121.07H497.13c4.27-49.93 35.66-79.89 80.8-79.89 23.32 0 43.29 7.14 62.29 19.5l19-34.71C635 238.36 605 227 570.82 227c-70.82 0-127.43 50.36-127.43 136.43 0 85.11 58 137.86 119.32 137.86 69.43 0 106.5-49.93 106.5-124.07 0-10.47-0.92-21.4-2.35-27.58zM790.43 227c-39.46 0-54.21 25.18-54.21 67.5V612.0699999999999h54.21v-320.46c0-14.71 6.64-20 13.29-20a37.8 37.8 0 0 1 9.07 1l7.11-41.36c-6.65-2.39-16.19-4.25-29.47-4.25z"  horiz-adv-x="1024" />

    
    <glyph glyph-name="yab_h5_sftp" unicode="&#59029;" d="M793.54 449.43h-31.61v-89.25h32.93c38.86 0 57.29 14.82 57.29 46.75s-20.1 42.5-58.61 42.5zM841.14 859.43H182.86A146.28 146.28 0 0 1 36.57 713.14v-658.28a146.29 146.29 0 0 1 146.29-146.29h658.28a146.29 146.29 0 0 1 146.29 146.29V713.14A146.28 146.28 0 0 1 841.14 859.43z m-635.45-626A120.86 120.86 0 0 0 119.45 269l22.37 26.32c17.46-17.43 41.16-28.64 64.54-28.64 29.3 0 45.77 13.82 45.77 34.25 0 22.07-16.46 29-38.86 38.86l-33.57 14.46c-23.37 9.89-49.39 28.32-49.39 63.57 0 38.18 33.59 66.82 79.68 66.82A103.88 103.88 0 0 0 283.41 454l-20.09-24.36c-15.14 13.46-31.95 21.71-53.34 21.71-24.7 0-40.82-11.86-40.82-31.29 0-20.75 19.43-28.64 39.18-36.54l33.25-14.14c28.64-12.21 49.39-30 49.39-65.54 0.02-38.84-32.27-70.41-85.28-70.41z m274.52 214.68H374.86V374h89.55v-32h-89.55v-104.29h-38.2V480h143.55z m201.79 0h-71.45v-210.4h-38.2v210.4h-71.1V480H682z m116.48-118.54h-36.55v-91.86h-38.2V480h73.43c54 0 92.52-18.43 92.52-73.11 0-52.96-38.52-77.32-91.2-77.32z"  horiz-adv-x="1024" />

    
    <glyph glyph-name="yab_h5_creater_" unicode="&#59033;" d="M128.93 559.28c-2-5.1-4.07-9.57-6.47-14.67 28.33-29 63.13-67.53 79.83-91.77l-16.7-15c-15 23.2-45.4 59.33-73.37 88.33-21.17-37.53-50.83-72.3-84.6-98.57a121.11 121.11 0 0 1-16.7 15.33c43.33 31.4 79.13 78.47 97.53 122.47z m25.6-279.07c16 0 18.43 7.87 20.13 48.47a71.93 71.93 0 0 1 20.47-8.53c-3.07-47.1-9.87-59.7-39.23-59.7H91.07c-31.37 0-41.27 6.8-41.27 34.8V441.92h122.13s-0.33-6.47-0.67-9.53c-3.4-59-6.83-81.53-14.33-89.73-5.13-5.8-10.6-7.5-18.77-8.17-7.17-0.7-20.13-0.7-33.1 0a50.86 50.86 0 0 1-5.8 19.77 281.86 281.86 0 0 1 29.67-1.37c4.47 0 7.2 0.33 9.93 3.07 4.07 4.8 7.47 22.2 10.2 65.87H71.63v-126.58c0-12.63 3.43-15 21.17-15z m87.67 59h-21.47V526.55h21.47zM309.77 561v-274c0-16.37-4.77-22.5-15-26.27-10.57-3.77-28.63-4.43-60.37-4.1-1.37 5.8-4.43 15.37-8.17 21.5 24.2-0.7 45.7-0.33 52.17-0.33 6.17 0.33 8.9 2.37 8.9 8.87V561zM454.6 447c-5.13-48.1-15.7-88-29.67-119.4C458 292.85 506.1 285 565.47 285c12.27 0 86.67 0 102.67 0.33-3.73-5.13-7.47-15-8.87-21.17h-94.14c-63.8 0-113.93 8.87-149.77 44.7-12.3-21.5-26.63-38.2-43-51.17-3.77 4.43-11.6 12.6-16.73 15.7 17.73 12.6 32.73 30.33 45 52.53-12.63 17-22.5 38.53-30.7 65.5l17.07 6.8c6.13-21.13 14-38.2 23.2-52.17 9.53 23.53 17 51.17 21.47 83.57h-55.2c14.67 24.9 34.13 62.1 49.47 94.5h-61.4v20.5h94.13c-14.3-30-33.07-66.53-48.07-94.5h27.27l4.1 0.33z m88.7 70.6h-66.87v18.48h66.87v28.34h21.5v-28.33h73.67v-45H663v-18.77h-24.53v-45.7H564.8v-27.63h80.83v-17.73H564.8v-29.7h93.8v-18.77h-93.8v-35.8h-21.5v35.8H457v18.73h86.3v29.7h-72v17.73h72v27.63h-69.6V445h69.6v27.3h-89.73V491h89.73z m21.5 0V491H618v26.6z m53.2-45.32h-53.2V445H618zM866.2 565.0799999999999c-0.33-11.93-0.67-29-2.4-49.13 5.13-39.57 25.93-184.9 146.37-238.8-6.13-5.1-13-12.6-16.37-19.1-87.67 41.27-123.5 129.3-139.87 193.43-15-69.6-50.87-149.77-136.8-194.47-3.77 5.8-11.27 12.63-17.73 17.4 141.9 71 140.87 239.5 141.9 290.67z"  horiz-adv-x="1024" />

    
    <glyph glyph-name="yab_h5_vnc" unicode="&#59034;" d="M841.14 859.43H182.86A146.29 146.29 0 0 1 36.57 713.14v-658.28a146.29 146.29 0 0 1 146.29-146.29h658.28a146.29 146.29 0 0 1 146.29 146.29V713.14A146.29 146.29 0 0 1 841.14 859.43zM282.7 234.78999999999996h-55.23l-92.89 295.5h48.27l43.89-153.23c9.87-33.65 16.46-62.9 27.06-96.91h2.2c10.24 34.38 17.19 63.27 27.06 96.91l46.08 153.23h47.54z m348.16 0h-47.91l-98 174.45-31.1 61.76h-2.19c2.56-30.72 6.22-64.73 6.22-96.91v-139.7h-44.26v295.9h47.91l98-173.71 31.09-62.9h2.19c-2.56 30.72-6.22 66.19-6.22 98.74V530.29h44.25z m193.46-5.12c-73.14 0-131.66 55.59-131.66 152.5S751.54 536.5 826.15 536.5a114.1 114.1 0 0 0 84.11-36.57L885 470.31A78.63 78.63 0 0 1 827.25 497c-51.2 0-86.67-42.79-86.67-112.27s32.91-113.37 85.21-113.37a86.31 86.31 0 0 1 65.46 31.45l24.87-29.26a117 117 0 0 0-91.8-43.88z"  horiz-adv-x="1024" />

    
    <glyph glyph-name="yab_h5_rdp" unicode="&#59035;" d="M804.57 493.71h-38.76V384h38.77c47.54 0 69.85 18.29 69.85 57.05s-22.68 52.66-69.86 52.66zM265.87 493.71h-46.44V392h46.45c43.15 0 66.56 17.55 66.56 53.39s-23.44 48.32-66.57 48.32zM512 493.71h-27.06v-219.42H512c63.63 0 97.65 36.57 97.65 109.71S575.27 493.71 512 493.71zM841.14 859.43H182.86A146.29 146.29 0 0 1 36.57 713.14v-658.28a146.29 146.29 0 0 1 146.29-146.29h658.28a146.29 146.29 0 0 1 146.29 146.29V713.14A146.29 146.29 0 0 1 841.14 859.43zM336.09 234.78999999999996l-66.92 119.59h-49.74v-119.59h-45v295.5h96.91c61.07 0 107.15-21.58 107.15-85.58a82.29 82.29 0 0 0-61.81-84.85l73.14-125.44z m181 0h-78.23v295.5h76.8c90 0 142.63-49.74 142.63-146.29s-52.67-149.21-141.17-149.21z m292.6 112.27h-43.88v-112.27h-46.45v295.5H809c65.83 0 113-22.67 113-89.23s-47.18-93.62-111.54-93.62z"  horiz-adv-x="1024" />

    
    <glyph glyph-name="yab_h5_ftp" unicode="&#59036;" d="M731.43 493.71h-36.57V384h40.23c47.54 0 69.85 18.29 69.85 57.05s-24.87 52.66-73.51 52.66zM841.14 859.43H182.86A146.29 146.29 0 0 1 36.57 713.14v-658.28a146.29 146.29 0 0 1 146.29-146.29h658.28a146.29 146.29 0 0 1 146.29 146.29V713.14A146.29 146.29 0 0 1 841.14 859.43zM350 491.89H219.43v-90.7h109.71v-39.13H219.43v-127.64h-45V530.29H350z m246.49 0h-87.42v-256h-46.44v256h-87v38.4H595zM738.74 345.6h-43.88v-112.27h-47.18v297h89.6c65.83 0 113-22.67 113-89.23s-45.71-93.62-111.18-93.62z"  horiz-adv-x="1024" />

    
    <glyph glyph-name="yab_h5_vncclient" unicode="&#59040;" d="M535.41 155.78999999999996a32.55 32.55 0 0 1-31.09-32.91h57.78c0.37 20.85-9.1 32.91-26.69 32.91zM837.49 859.43H179.2A146.29 146.29 0 0 1 32.91 713.14v-658.28A146.29 146.29 0 0 1 179.2-91.42999999999995h658.29a146.29 146.29 0 0 1 146.28 146.29V713.14A146.29 146.29 0 0 1 837.49 859.43zM283.43 49a73.14 73.14 0 0 0-73.14 83 75.34 75.34 0 0 0 66 83.62q3.54 0.42 7.12 0.5A62.17 62.17 0 0 0 329.14 196l-13.9-16.09a42.79 42.79 0 0 1-31.45 14.63c-27.79 0-47.18-23.41-47.18-61.07s19.38-62.17 47.91-62.17a47.18 47.18 0 0 1 36.58 17.2l13.53-16.09a63.63 63.63 0 0 0-51.2-23.41z m-20.85 258.93h-55.22l-92.89 295.5h49.74L208.1 450.2c9.87-33.65 16.46-62.9 27.06-96.91H237c10.24 34.38 17.19 63.27 27.06 96.91l43.52 153.23h47.54zM385.1 49c-18.29 0-24.87 11.7-24.87 31.09V226.38h24.87v-146.29c0-6.95 2.93-9.14 6.22-9.14h4l3.29-19A40.23 40.23 0 0 0 385.1 49z m65.46 2.93h-24.87V172.62h24.87z m-11.7 143a15 15 0 1 0 1.14 0q-0.57-0.05-1.14 0z m146.29-89.6h-80.46a36.57 36.57 0 0 1 36.57-36.57 51.2 51.2 0 0 1 28.89 9.14l8.78-16.09A73.14 73.14 0 0 0 538 49a57.78 57.78 0 0 0-58.88 62.9 58.51 58.51 0 0 0 53.06 63.5l1.8 0.13c32.18 0 49-23 49-57.42a53.16 53.16 0 0 0 0-12.43z m27.43 202.24h-49.75l-98.37 174.81-31.09 61.81h-1.83c2.56-30.72 6.22-64.73 6.22-96.91v-139.7h-44.25V603.4300000000001h47.91l98-173.71 31.09-62.9h2.19c-2.56 30.72-6.22 66.19-6.22 98.74V603.4300000000001h44.25z m102-256h-27.04v73.14c0 20.85-6.22 29.26-20.48 29.26a41.33 41.33 0 0 1-29.62-16.46v-85.58h-24.87V172.62h20.48l1.83-16.82a57.42 57.42 0 0 0 39.86 19.75c25.6 0 36.57-17.19 36.57-47.91z m77.17-2.93c-27.06 0-36.57 16.82-36.57 42.42V152.5h-17.53v19h18.65l2.93 33.28h21.21v-33.28h31.45v-20.11h-31.46v-60c0-14.63 5.12-21.94 17.55-21.94a36.57 36.57 0 0 1 12.8 2.93l4.75-18.65a77.17 77.17 0 0 0-25.6-4.75z m12.8 254.17c-73.14 0-131.66 55.59-131.66 152.5s58.51 154.33 131.66 154.33a114.1 114.1 0 0 0 84.11-36.57l-25.23-29.62a78.63 78.63 0 0 1-57.78 26.7c-51.2 0-86.67-42.79-86.67-112.27s32.93-113.38 85.23-113.38a86.31 86.31 0 0 1 65.46 31.5l24.87-29.26a117 117 0 0 0-89.97-43.93z"  horiz-adv-x="1024" />

    
    <glyph glyph-name="yab_h5_sqlserver" unicode="&#59041;" d="M841.14 859.43H182.86A146.29 146.29 0 0 1 36.57 713.14v-658.28a146.29 146.29 0 0 1 146.29-146.29h658.28a146.29 146.29 0 0 1 146.29 146.29V713.14A146.29 146.29 0 0 1 841.14 859.43zM249.42 237.71000000000004a146.29 146.29 0 0 0-105.33 43.52l27.43 32.18a114.83 114.83 0 0 1 79-36.57c36.57 0 56 16.82 56 41.69s-20.11 36.57-47.54 47.54l-39.5 20.11a85.21 85.21 0 0 0-62.17 77.9 88.14 88.14 0 0 0 93.86 82q2.45-0.16 4.89-0.47a126.9 126.9 0 0 0 89.6-36.57l-24.5-29.62a94.35 94.35 0 0 1-65.1 25.6c-30.35 0-49.74-14.63-49.74-36.57s23.77-36.57 47.91-44.62l38.4-19a82.65 82.65 0 0 0 60.34-80.09c0.68-47.53-38.82-87.03-103.55-87.03z m365.71-73.14a119.59 119.59 0 0 0-115.2 73.14c-64 11-106.79 67.29-106.79 152.87 0 95.45 52.66 152.5 128.73 152.5S651 486 651 390.58c0-83.38-40.59-139-101.3-151.77a75.7 75.7 0 0 1 70.58-36.57 109.71 109.71 0 0 1 31.45 4.39l8.78-36.57a117.39 117.39 0 0 0-45.35-2.93z m269.53 76.8H712.78V540.1600000000001h46.81v-256h125.07zM603.43 393.14c0 69.49-32.18 111.91-81.19 111.91s-80.82-42.42-80.82-111.91 31.82-116.3 80.82-116.3 81.19 44.62 81.19 116.3z"  horiz-adv-x="1024" />

    
    <glyph glyph-name="yab_h5_secbrower" unicode="&#59042;" d="M374.86 388.75h130.92V507.61a585.14 585.14 0 0 0-113.37 12.8 553 553 0 0 1-17.55-131.66zM400.09 205.52999999999997a275 275 0 0 1 56.69-101.67 97.28 97.28 0 0 1 49-29.62v143a560.28 560.28 0 0 1-79.36-6.95 234 234 0 0 1-26.33-4.76zM374.86 362.41999999999996a564.3 564.3 0 0 1 17.92-131.29 576.36 576.36 0 0 0 113.37 12.8V362.78999999999996zM445.44 634.15a298.42 298.42 0 0 1-45.71-88.87c16.09-4 32.18-5.85 48.64-8a446 446 0 0 1 57.42-3.66v143a109.71 109.71 0 0 1-60.35-42.47zM741.3 580.75a300.25 300.25 0 0 1-142.63 86.31 292.57 292.57 0 0 0 65.1-115.57 362.79 362.79 0 0 1 77.53 29.26zM365.71 526.26a385.46 385.46 0 0 0-87.41 34 303.18 303.18 0 0 1-62.54-171.52h131.67a588.43 588.43 0 0 0 18.28 137.52zM374.49 201.14a370.47 370.47 0 0 1-77.17-29.26 300.62 300.62 0 0 1 141.53-88.14 212.85 212.85 0 0 0-17.55 20.11 331 331 0 0 0-46.81 97.29zM438.86 667.4300000000001a301.35 301.35 0 0 1-142.63-86.31 356.21 356.21 0 0 1 77.17-29.26 292.57 292.57 0 0 0 65.46 115.57zM348.53 362.41999999999996H216.87a303.18 303.18 0 0 1 62.9-171.52 386.2 386.2 0 0 0 85.94 34 589.53 589.53 0 0 0-17.18 137.52zM645.85 520.4100000000001a571.25 571.25 0 0 0-113.37-12.8v-118.86h131.29a558.08 558.08 0 0 1-17.92 131.66zM671.45 224.90999999999997a388.39 388.39 0 0 0 87.41-34 302.81 302.81 0 0 1 62.54 171.52H689.74a590.63 590.63 0 0 0-18.29-137.52zM671.45 526.26a593.55 593.55 0 0 0 18.65-137.51h131.29a303.18 303.18 0 0 1-62.54 171.52 388.76 388.76 0 0 0-87.4-34.01zM841.14 859.43H182.86A146.29 146.29 0 0 1 36.57 713.14v-658.28a146.29 146.29 0 0 1 146.29-146.29h658.28a146.29 146.29 0 0 1 146.29 146.29V713.14A146.29 146.29 0 0 1 841.14 859.43z m6.95-489.69a329.14 329.14 0 0 0-194.56-292.57 334.63 334.63 0 0 0-123.25-28.53h-21.94A336.82 336.82 0 0 0 398.63 72a329.14 329.14 0 0 0-207 299.52v11.7a329.14 329.14 0 0 0 258.2 315.29 370.47 370.47 0 0 0 59.61 7.68h21.94a350.35 350.35 0 0 0 77.53-12.07 329.14 329.14 0 0 0 224.19-215.4 335 335 0 0 0 16.09-95.45zM591.36 213.58000000000004c-19.38 2.19-39.13 3.66-58.88 4v-143A109.71 109.71 0 0 1 593.19 117a300.25 300.25 0 0 1 45.35 88.5c-16.83 4.05-31.45 5.5-47.18 8.08zM599 84.11000000000001a160.92 160.92 0 0 1 20.15 5.89 302.45 302.45 0 0 1 122.15 80.06 352.91 352.91 0 0 1-77.17 29.26A292.57 292.57 0 0 0 599 84.11000000000001zM581.49 647.31a97.28 97.28 0 0 1-49 29.26v-143a554.79 554.79 0 0 1 106.06 11.7 273.19 273.19 0 0 1-57.06 102.04zM532.48 243.57000000000005a580.75 580.75 0 0 0 113.37-12.8 563.56 563.56 0 0 1 17.92 131.29H532.48z"  horiz-adv-x="1024" />

    
    <glyph glyph-name="yab_h5_other" unicode="&#59043;" d="M841.14 859.43H182.86A146.29 146.29 0 0 1 36.57 713.14v-658.28a146.29 146.29 0 0 1 146.29-146.29h658.28a146.29 146.29 0 0 1 146.29 146.29V713.14A146.29 146.29 0 0 1 841.14 859.43z m-338.28-780.8a58.15 58.15 0 0 0-59.33 56.95q0 2.25 0.08 4.49a59.11 59.11 0 1 0 61.86-61.38q-1.3-0.06-2.61-0.06z m36.57 190.54H463c-18.29 129.1 115.2 178.1 115.2 261.85a70.22 70.22 0 0 1-75.34 73.14A125.07 125.07 0 0 1 410 557.35l-50.1 46.08A200.78 200.78 0 0 0 512 676.5699999999999c89.23 0 151.41-50.83 151.41-140.43 0.73-111.54-136-152.14-122.88-267.34z"  horiz-adv-x="1024" />

    
    <glyph glyph-name="yab_h5_chrome" unicode="&#59044;" d="M512 384m-93.3 0a93.3 93.3 0 1 1 186.6 0 93.3 93.3 0 1 1-186.6 0ZM636.3 384c0-22-5.8-43.5-16.8-62.5L512.2 135.29999999999995h0.5c137.2 0.2 248.2 111.5 248 248.7 0 32-6.2 63.7-18.3 93.3H593.6c27.1-23.4 42.8-57.5 42.7-93.3zM512 259.70000000000005c-44.4-0.2-85.6 23.5-107.5 62.2L296.6 508.3c-16.2-27.9-26.7-58.7-31.1-90.6-18.7-135.9 76.3-261.2 212.2-279.9L552.2 267c-12.9-4.6-26.5-7.1-40.2-7.3zM512 632.7c-76.2-0.3-148.1-35.6-194.9-95.8l73.2-128.4c11.7 58 62.6 99.8 121.8 99.8h215C682.7 585.2 600.7 632.6 512 632.7zM841.1 859.4H182.9c-80.8 0-146.3-65.5-146.3-146.3v-658.3c0-80.8 65.5-146.3 146.3-146.3h658.3c80.8 0 146.3 65.5 146.3 146.3V713.1c-0.1 80.8-65.6 146.3-146.4 146.3zM512 91.39999999999998c-161.6 0-292.6 131-292.6 292.6s131 292.6 292.6 292.6 292.6-131 292.6-292.6-131-292.6-292.6-292.6z"  horiz-adv-x="1024" />

    
    <glyph glyph-name="yab_h5_firefox" unicode="&#59045;" d="M671.8 582.9c9-13.5 16.7-27.8 23-42.8 14.6-35.9 20.3-74.8 16.5-113.4l-5.8-64-22.7 60.3c-2.5 6.8-5.9 13.2-10.2 19 1.7-5.9 3.2-11.8 4.4-17.9 7.9-33.5 4.4-68.6-9.9-99.8-11-20-26.5-37.2-45.3-50.1-20.9-16.2-44.9-27.8-70.6-34-20.3-4.3-41.2-4.3-61.4 0-22.2 4.8-43 15-60.3 29.6l-36.6 30 46.8-4c38.2-7.6 77 10.3 96.2 44.2l4.8 7.7h9.1c11.3-1.1 17.5 1.8 17.5 3.7 0.6 1.4 0.6 3 0 4.4-5.3 4.8-12.3 7.3-19.4 7-10-0.5-19.6-4.1-27.4-10.2-14.7-9.6-31.1-16.2-48.3-19.4-11.7-2-23.7-0.9-34.7 3.3-10.6 4-19.9 10.7-27.1 19.4a56.243 56.243 0 0 0-8.8 57.8l5.9 14.6 34.4-16.5-3.7 46.5 13.2 2.2c16.9 1.8 32.7 9.4 44.6 21.6 3.2 4.4 5.4 9.4 6.6 14.7-22.7 0.3-45.3 3.3-67.3 8.8l-9.1 2.9V518c0.2 22.8 7.9 44.9 21.9 62.9l10.2 15c-29.4-6.1-55.5-22.9-73.1-47.2l-11-20.9-12.4 16.8c-7.5 1.4-15.2 1.4-22.7 0l-26.3-34 3.7 92.9c-64.7-83.8-88.5-229.3-46.8-322.6 41.6-98.3 138.3-161.9 245-161.3 69.8 0.3 136.5 28.8 185 79h0.7c47.7 46.6 74.9 110.3 75.7 177-1.5 97.6-37.4 166.8-104.3 207.3zM434.1 377c8.3-9.9 21.3-14.6 34-12.4h7.3l-1 0.5c-0.1 0-0.3-0.1-0.4-0.1v0.4l-45.7 23.4c1-4.4 3-8.4 5.8-11.8zM841.1 859.4H182.9c-80.8 0-146.3-65.5-146.3-146.3v-658.3c0-80.8 65.5-146.3 146.3-146.3h658.3c80.8 0 146.3 65.5 146.3 146.3V713.1c-0.1 80.8-65.6 146.3-146.4 146.3zM804.6 376l-0.1 1c0.3-36.4-7.2-72.4-21.9-105.7-15-34.3-36.2-65.5-62.5-92.2-26.2-26.8-57.2-48.4-91.4-63.6-36-16-75-24.2-114.5-24.1-59.2-1-117.4 15.9-166.8 48.6-46.9 32.1-83.6 76.9-106.1 129.1-13.2 31.3-20.6 64.8-21.9 98.7-1.4 35.4 1.8 70.8 9.5 105.3 12.3 68.1 45.1 130.9 94 179.9l26 23.4-4-98.7h8.4c4.4 0.4 8.8 0.4 13.2 0 13.6 15.8 30.6 28.3 49.7 36.6 24.4 11.8 50.9 18.4 77.9 19.4h41.7L504 607.1c-12.5-12-23.5-25.5-32.6-40.2-7.4-11.2-12.9-23.6-16.5-36.6 15.5-2.8 31.1-4.6 46.8-5.5h18.7c5.2-3.1 8.8-8.3 9.9-14.3 2.2-15.8-2-31.9-11.7-44.6-13-15.1-30.6-25.7-50.1-30l5.5-70.6 0.5-0.2c10.6 3.1 20.6 7.8 29.9 13.7 12.8 9.6 28.3 14.7 44.2 14.6 16.5 0.2 32.1-7.3 42.4-20.1 6.1-8.6 8.3-19.4 5.8-29.7-1.8-6.2-5.5-11.7-10.6-15.7-8.3-6.3-18.5-9.7-28.9-9.5-11.5-17.2-27.2-31-45.7-40.2-6.2-2.9-12.7-5.2-19.4-7 17.7-4.1 36.1-4.1 53.8 0 39.8 7.9 74.5 32 95.9 66.6 18.9 46.6 11.2 99.7-20.1 139l-78.3 65.5 93.3-41c15.9-6.3 30.7-14.8 44.2-25.2-7.9 52.8-34.9 100.9-75.7 135.3l-56.7 46.1 71-20.5c53.9-14.3 101.3-46.4 134.6-91.1 34.1-49.9 51.7-109.4 50.4-169.9z"  horiz-adv-x="1024" />

    
    <glyph glyph-name="yab_h5_mysql" unicode="&#59047;" d="M182.9 859.4h658.3c80.8 0 146.3-65.5 146.3-146.3v-658.3c0-80.8-65.5-146.3-146.3-146.3H182.9c-80.8 0-146.3 65.5-146.3 146.3V713.1c0 80.8 65.5 146.3 146.3 146.3zM376.7 365c0-3.7 3.3-7 4.4-9.9 18.3-50.3 45.2-97.1 79.4-138.2 4.7-5.5 9.7-10.8 15-15.7l5.1-5.5c-22.7 12.8-43.1 29.4-60.3 49-18.2 19-32.4 41.5-41.7 66.2-1.8-11.3-3.7-23-5.9-34.4-0.6-4-1.5-7.9-2.6-11.7-3.2-12.7-16-20.5-28.8-17.4-2.1 0.5-4.1 1.3-6 2.4-6.6 3.7-12.5 8.7-17.2 14.6-13.6 17.7-22.4 38.6-25.6 60.7-5.5 36.3-1.9 73.4 10.6 107.9 1.5 4.1 2.6 8.4 3.3 12.8 1 2.5 1 5.2 0 7.7-15.9 17.5-27.6 38.4-34.4 61.1-7 14.1-12.3 29-16.1 44.3-5.8 14.1-13.8 27.2-23.8 38.8-7.7 8.4-12.8 16.8-20.1 25.2-9.5 11.7-13 27.1-9.5 41.7 5 14.3 18.2 24 33.3 24.5 18.5-0.6 36.6-5.7 52.7-15 10.5-5.9 20.7-12.5 30.4-19.8 4.1-3.6 9.2-5.8 14.6-6.2 38.1-0.1 75.1-12.2 106.1-34.4 27.3-17.8 52.6-38.4 75.7-61.4 32.5-33 58.6-71.7 77.2-114.1 16.5-39.1 36.5-76.7 54.1-114.8 2-5.6 6.2-10.1 11.7-12.4 38.3-14.7 73.8-35.8 105-62.5 13.1-10.7 24.7-23 34.7-36.6 4-5.8 3.7-7.3-2.9-9.1l-44.2-8.8-40.2-8.4c0.7-4.7 3.3-8.8 7.3-11.3 8.8-6.2 17.2-12.8 26.3-17.9 21.6-12.9 40.8-29.5 56.7-49 2.7-3.3 5.6-6.3 8.8-9.1 5.7-5.6 9.6-12.9 11-20.8l-7.3 5.1c-19.7 17.5-42 31.7-66.2 42.1-19.8 10-37.6 23.6-52.3 40.2-7.4 7.7-13.3 16.8-17.2 26.7-2.6 6.2 0 8.8 4.8 11.3 24.4 10.3 50.7 15.3 77.2 14.6h15c-2.5 3.2-5.4 6.1-8.4 8.8-13.2 9.5-27.1 17.9-39.9 27.8-23.1 16-48.9 27.7-76.1 34.7-12.4 2.8-22.9 11-28.5 22.3-9.1 19-18.7 36.6-27.4 56.7-12.4 27.1-23 55.2-36.6 81.2-36.9 72.8-97.8 131-172.4 164.3-14.1 6.1-29.3 9.3-44.6 9.5H323c-6.2 0.6-12.1 3.1-16.8 7.3-19.8 16.9-43.2 29.1-68.4 35.5-6.3 2.1-13.2-1.3-15.3-7.6-0.9-2.8-0.8-5.8 0.3-8.5 2.9-7.3 6.6-14.3 11-20.9 4.3-6.8 9.1-13.2 14.3-19.4 16.3-19.9 28-43.1 34.4-68 2.9-11 7-21.6 11-32.5 5.6-15.2 14.3-29 25.6-40.6 7.7-7.5 10.2-18.9 6.2-28.9-5.7-14.9-10.4-30.2-13.9-45.7-7.4-36.4-2.5-74.2 13.8-107.5 2.5-6.1 7.2-11 13.2-13.9 3.3 0 4.8 0 5.1 2.9 0 13.2 3.3 26.3 5.1 39.5 2.1 14.1 8.1 27.4 17.2 38.4l10.3 11.7 0.6 0.4z m-52.3 180.3c-6.1 16.1-15.4 30.8-27.4 43.1 12 7.9 28.1 4.6 36-7.4 0.2-0.3 0.4-0.7 0.6-1 8.4-10.3 6.9-25.5-3.4-34-1.2-1-2.5-1.9-3.9-2.6l-1.9 1.9z"  horiz-adv-x="1024" />

    
    <glyph glyph-name="yab_h5_vsphereclient" unicode="&#59049;" d="M358 453.9h-73.1v-292.6h292.6V344.1h110v293H394.6v-183.2zM841.1 859.4H182.9c-80.8 0-146.3-65.5-146.3-146.3v-658.3c0-80.8 65.5-146.3 146.3-146.3h658.3c80.8 0 146.3 65.5 146.3 146.3V713.1c-0.1 80.8-65.6 146.3-146.4 146.3zM723.8 307.9H614V125H248.3V490.8H358V673.6h365.8v-365.7zM449.5 563.9h182.9V381H449.5zM339.8 417.6h182.9v-182.9H339.8zM182.9 858.5h658.3c80.8 0 146.3-65.5 146.3-146.3v-658.3c0-80.8-65.5-146.3-146.3-146.3H182.9c-80.8 0-146.3 65.5-146.3 146.3V712.2c0 80.8 65.5 146.3 146.3 146.3zM660.4 84h-416V499.7h109.7V682.9h416.1v-416.1H660.4V84z m-366 50h316.1V316.79999999999995h109.7V632.9H404.1v-183.2H294.4V134zM653.8 549H470.6v-146.3H360.9v-182.8h182.9V366.20000000000005h110z"  horiz-adv-x="1024" />

    
    <glyph glyph-name="yab_h5_ie1" unicode="&#59050;" d="M182.9 859.4h658.3c80.8 0 146.3-65.5 146.3-146.3v-658.3c0-80.8-65.5-146.3-146.3-146.3H182.9c-80.8 0-146.3 65.5-146.3 146.3V713.1c0 80.8 65.5 146.3 146.3 146.3zM646.5 338.70000000000005h141.9c0.6 10.1 0.6 20.2 0 30.3-0.3 46.6-12.9 92.3-36.6 132.4 23.4 62.2 22.7 114.8-8.8 146.3s-109.7 24.9-200-15h-20.2c-121-0.3-226.4-82.7-256-200 35.2 47.7 81.3 86.2 134.6 112.2l-38.8-36.6c-143.9-144.1-189.3-332-140.7-381 36.6-36.6 104.6-30.7 182.9 7 130.5-66.1 289.8-13.9 355.8 116.6 5.5 10.9 10.3 22.2 14.2 33.8H633c-29.7-57-99.9-79.1-156.9-49.4-38.9 20.3-63.1 60.7-62.6 104.6h232.2l0.8-1.2z m-233 69.8c-0.6 61.4 48.7 111.6 110.1 112.2S635.2 472 635.8 410.6v-2.1H413.5z m329.2 209.9c20.1-20.5 19.8-57.8 2.6-104.6-29.8 45.5-72.8 80.7-123.2 100.9 54.1 23.5 98.3 26.4 120.6 3.7zM261.1 135.29999999999995c-25.6 25.6-17.9 79.7 15 146.3 20.6-57.6 60.3-106.2 112.6-137.9-57.4-26-104.2-30.3-128-7l0.4-1.4z"  horiz-adv-x="1024" />

    
    <glyph glyph-name="yab_point" unicode="&#58932;" d="M171.15 384m-59.98 0a59.98 59.98 0 1 1 119.96 0 59.98 59.98 0 1 1-119.96 0ZM512 384m-59.98 0a59.98 59.98 0 1 1 119.96 0 59.98 59.98 0 1 1-119.96 0ZM852.85 384m-59.98 0a59.98 59.98 0 1 1 119.96 0 59.98 59.98 0 1 1-119.96 0Z"  horiz-adv-x="1024" />

    
    <glyph glyph-name="yab_on_under" unicode="&#58935;" d="M549.09717114 705.56375318l456.44706482-570.558831a47.51041216 47.51041216 0 0 0-37.09717115-77.2315376H55.76987771a47.53210641 47.53210641 0 0 0-37.09717115 77.2315376l456.2301223 570.34188848a47.38024663 47.38024663 0 0 0 66.81829653 7.37604576 38.44221477 38.44221477 0 0 0 7.37604575-7.15910324z"  horiz-adv-x="1024" />

    
    <glyph glyph-name="yab_h_next" unicode="&#59055;" d="M711.68 102.4h-51.2v563.2h51.2zM299.52 561.152l307.2-177.152-307.2-177.152V561.152m-51.2 88.576V117.76l460.8 266.24-460.8 266.24z"  horiz-adv-x="1024" />

    
    <glyph glyph-name="yab_h_pause" unicode="&#59056;" d="M384 665.6h51.2v-563.2H384zM588.8 665.6H640v-563.2h-51.2z"  horiz-adv-x="1024" />

    
    <glyph glyph-name="yab_h_play" unicode="&#59057;" d="M357.2 593l362-209-362-209V593m-50 86.6v-591.2l512 295.6-512 295.6z"  horiz-adv-x="1024" />

    
    <glyph glyph-name="yab_h5_oracle" unicode="&#59059;" d="M182.9 859.4h658.3c80.8 0 146.3-65.5 146.3-146.3v-658.3c0-80.8-65.5-146.3-146.3-146.3H182.9c-80.8 0-146.3 65.5-146.3 146.3V713.1c0 80.8 65.5 146.3 146.3 146.3zM650.2 530.3c75-0.2 135.8-61 136-136v-20.5c-0.2-75-61-135.8-136-136H373.8c-75 0.2-135.8 61-136 136v20.4c0.2 75 61 135.8 136 136l276.4 0.1m0 36.5H373.8c-95.1-0.4-172.2-77.4-172.6-172.6v-20.5c0.4-95.2 77.5-172.2 172.6-172.6h276.5c95.2 0.4 172.2 77.5 172.6 172.6v20.5c-0.4 95.2-77.5 172.3-172.7 172.6z"  horiz-adv-x="1024" />

    
    <glyph glyph-name="yab_h_m" unicode="&#59060;" d="M769.22 640v-512h-512V640h512m51.2 51.2H206v-614.4h614.4V691.2zM387.64 540.3h54.45L497.37 388c6.95-20 13.1-40.52 20.05-61h2c7 20.45 12.7 40.93 19.65 61l54.45 152.3h54.85V239h-44.2V388c0 27 3.68 65.93 6.13 93.35h-1.62l-24.15-69.6-52.4-143.67h-29.44l-52.82 143.67-23.73 69.6h-1.65c2.05-27.43 5.72-66.33 5.72-93.35v-149h-42.57z"  horiz-adv-x="1024" />

    
    <glyph glyph-name="yab_h_l" unicode="&#59061;" d="M769.22 640v-512h-512V640h512m51.2 51.2H206v-614.4h614.4V691.2zM438.84 540.3h47.5v-261.18h127.3V239h-174.8z"  horiz-adv-x="1024" />

    
    <glyph glyph-name="yab_h_r" unicode="&#59062;" d="M769.22 640v-512h-512V640h512m51.2 51.2H206v-614.4h614.4V691.2zM583.34 239L515 360.58h-48.7V239h-47.5V540.3h98.68c62.23 0 108.88-22.1 108.88-87.2 0-46.68-25-74.5-63-86.38L637 239zM466.27 398.65h45.45c43.8 0 67.52 18 67.52 54.45s-23.72 49.12-67.52 49.12h-45.45z"  horiz-adv-x="1024" />

    
    <glyph glyph-name="user" unicode="&#58939;" d="M256 810.67v-85.34h42.67V768h640v-469.33h-32V256h74.66V810.67H256zM302.92-42.67l-73.9 128H42.67V682.67h810.66v-597.34H376.81zM85.33 128h168.32l49.27-85.33L352.19 128h458.48V640H85.33zM236.44 380.81m-29.87 0a29.87 29.87 0 1 1 59.74 0 29.87 29.87 0 1 1-59.74 0ZM448 380.81m-29.87 0a29.87 29.87 0 1 1 59.74 0 29.87 29.87 0 1 1-59.74 0ZM659.56 380.81m-29.87 0a29.87 29.87 0 1 1 59.74 0 29.87 29.87 0 1 1-59.74 0Z"  horiz-adv-x="1024" />

    
    <glyph glyph-name="yab_h_jianqieban" unicode="&#59073;" d="M179.2 742.4v-716.8h256v51.2H230.4V691.2h512v-102.4h51.2V742.4H179.2zM502.631 515.762l44.34 25.6 230.4-399.065-44.34-25.6zM784.232 541.362l44.34-25.6-230.4-399.065-44.34 25.6zM537.6 175.43a76.8 76.8 0 1 1 76.8-76.8 76.8 76.8 0 0 1-76.8 76.8z m0-115.2a38.4 38.4 0 1 0 38.4 38.4 38.4 38.4 0 0 0-38.4-38.4zM793.6 175.43a76.8 76.8 0 1 1 76.8-76.8 76.8 76.8 0 0 1-76.8 76.8z m0-115.2a38.4 38.4 0 1 0 38.4 38.4 38.4 38.4 0 0 0-38.4-38.4z"  horiz-adv-x="1024" />

    
    <glyph glyph-name="yab_h_shift" unicode="&#59074;" d="M118.43 275.17l24.4 28.68c19-19 44.85-31.2 70.3-31.2 31.9 0 49.85 15.08 49.85 37.3 0 24-18 31.55-42.35 42.32L184.08 368c-25.45 10.75-53.8 30.83-53.8 69.2 0 41.6 36.6 72.8 86.8 72.8A113.09 113.09 0 0 0 297 476.7l-21.85-26.55c-16.5 14.7-34.8 23.68-58.1 23.68-26.9 0-44.5-12.9-44.5-34.07 0-22.57 21.2-31.18 42.7-39.8l36.2-15.4c31.2-13.28 53.8-32.65 53.8-71.38 0-42.3-35.15-76.72-92.85-76.72-36.22-0.01-69.92 14.31-93.97 38.71zM351.43 526.9h40.85v-75.67l-1.4-39.08c17.2 16.5 36.9 31.2 63.8 31.2 41.95 0 60.6-28 60.6-78.18V241.1H474v119c0 34.08-10 47.7-33.3 47.7-18.3 0-30.85-9.33-48.45-26.9v-139.8h-40.82zM568.23 499.65c0 14.7 11.15 24.37 26.2 24.37S621 514.35 621 499.65c0-14.35-11.5-24.4-26.55-24.4s-26.22 10.05-26.22 24.4z m5.77-61.33h40.9V241.1H574zM772.58 493.9a53.6 53.6 0 0 1-21.5 5c-17.6 0-26.2-11.48-26.2-35.5v-25.1h39.8v-33h-39.8v-164.2h-41.25V405.32h-26.85v30.85l26.85 2.15v24.75c0 40.53 18.3 68.48 62.4 68.48 13.3 0 25.85-2.85 34.8-6.8zM806.93 305.65v99.67h-28.65v30.85l30.45 2.15 4.65 54.5h34.8v-54.5h51.3v-33h-51.3v-100c0-23.67 8.25-35.88 28.7-35.88A58.58 58.58 0 0 1 898 274.1l7.55-30.5c-11.15-3.58-24.4-7.15-38.75-7.15-44.42 0-59.87 27.55-59.87 69.2zM972.8 640v-512H51.2V640h887.47m85.33 51.2H0v-614.4h1024V691.2z"  horiz-adv-x="1024" />

    
    <glyph glyph-name="yab_h_alt" unicode="&#59075;" d="M436.957328 335.624724h-91.841031l-22.597793-75.302646h-42.295869l87.501454 263.974221h48.045309l87.501454-263.974221h-44.095693z m-10.089014 32.626814l-10.398985 35.526531c-8.999121 28.677199-16.848355 58.074329-25.097549 87.85142H389.961918c-7.499268-30.127058-15.748462-59.174221-24.347623-87.85142l-10.798945-35.526531zM534.317821 306.577561V546.124168h40.896006v-241.696397c0-11.098916 4.999512-15.04853 10.049018-15.048531a28.497217 28.497217 0 0 1 6.799336 0.729929l5.349478-31.196953c-4.999512-1.799824-12.148814-3.229685-22.197832-3.229685-29.747095-0.009999-40.896006 18.988146-40.896006 50.89503zM647.566761 324.875774V424.54604H618.939557v30.856987l30.447026 2.14979 4.629548 54.484679h34.796602v-54.504677h51.30499v-32.996778h-51.30499v-99.990235c0-23.677688 8.249194-35.876496 28.697198-35.876496a58.584279 58.584279 0 0 1 21.147934 4.679543l7.549263-30.497022c-11.148911-3.57965-24.397617-7.149302-38.746216-7.149302-44.44566-0.029997-59.894151 27.577307-59.894151 69.173245zM871.614881 640.024998v-512.029998H154.814881V640.024998h699.731667m68.263334 51.195H103.619881v-614.419998h819.2V691.2z"  horiz-adv-x="1024" />

    
    <glyph glyph-name="yab_h_ctrl" unicode="&#59076;" d="M226.37 391.57c0 86.05 52.35 137.7 119.05 137.7 32.95 0 58.8-15.77 74.95-33.35l-22.6-26.55c-13.65 14-30.15 23.68-51.65 23.68C300.57 493 269 455 269 393c0-62.75 29.4-101.13 76-101.13 24.05 0 42.7 10.77 58.45 28l22.25-26.18c-21.15-24.38-48-38-82.1-38-66.33-0.02-117.23 49.46-117.23 135.88zM462.92 324.87v99.68h-28.7V455.4l30.5 2.15 4.65 54.5h34.8v-54.5h51.25v-33h-51.25v-100c0-23.67 8.25-35.88 28.65-35.88a58.12 58.12 0 0 1 21.18 4.66l7.55-30.5c-11.1-3.58-24.4-7.15-38.7-7.15-44.53-0.01-59.93 27.59-59.93 69.19zM598.37 457.55h33.7l3.25-35.5h1c14 25.45 34.8 40.52 56 40.52 9.7 0 16.15-1.45 22.25-4.3L707 422.4a58.15 58.15 0 0 1-19.7 3.23c-16.15 0-35.5-11.1-48-42.3v-123h-40.9zM745 306.58V546.12h40.85v-241.7c0-11.1 5-15 10-15a28.07 28.07 0 0 1 6.8 0.73l5.4-31.2c-5-1.8-12.2-3.23-22.25-3.23-29.73-0.05-40.8 18.95-40.8 50.86zM922.82 640v-512h-819.2V640h793.6M974 691.2H52.42v-614.4H974V691.2z"  horiz-adv-x="1024" />

    
    <glyph glyph-name="yab_h_jianpan" unicode="&#59077;" d="M156 646.4v-512h716.8v512z m665.6-460.8H207.23V595.2h614.4zM284.03 518.4h51.2v-51.2h-51.2zM386.43 518.4h51.2v-51.2h-51.2zM488.83 518.4h51.2v-51.2h-51.2zM591.23 518.4h51.2v-51.2h-51.2zM693.63 518.4h51.2v-51.2h-51.2zM284.03 416h51.2v-51.2h-51.2zM386.43 416h51.2v-51.2h-51.2zM488.83 416h51.2v-51.2h-51.2zM591.23 416h51.2v-51.2h-51.2zM693.63 416h51.2v-51.2h-51.2zM309.63 300.8h409.6v-25.6h-409.6z"  horiz-adv-x="1024" />

    
    <glyph glyph-name="yab_h_photo" unicode="&#59078;" d="M668.03 588.8v-51.2h153.6V128h-614.4V537.6h153.6v51.2h-204.8v-512h716.8v512h-204.8zM668.03 691.2h-307.2l-51.2-153.6h68.27L412.03 640h204.8l34.14-102.4h68.26l-51.2 153.6zM514.43 499.2a128 128 0 1 1 128-128 128 128 0 0 1-128 128z m0-204.8a76.8 76.8 0 1 0 76.8 76.8 76.8 76.8 0 0 0-76.8-76.8z"  horiz-adv-x="1024" />

    
    <glyph glyph-name="yab_h_break" unicode="&#59080;" d="M590.336 248.832l-108.544-108.544a153.6 153.6 0 0 0-217.088 217.088L373.248 465.92l-36.352 36.352-108.544-108.544a204.8 204.8 0 0 1 0-289.792 204.8 204.8 0 0 1 289.792 0l108.544 108.544zM392.5504 555.6736l108.544 108.6464 36.2496-36.2496-108.5952-108.544zM645.9904 302.2336l108.5952 108.6464 36.1984-36.2496-108.5952-108.544zM791.04 664.064a204.8 204.8 0 0 1-289.792 0l36.352-36.352a153.6 153.6 0 0 0 217.088-217.088l36.352-36.352a204.8 204.8 0 0 1 0 289.792zM832.9728 122.5216l-34.304-37.9904-83.6096 75.4176 34.304 38.0416zM692.8896 53.248l-51.2-1.536-3.7888 120.7296 51.2 1.6384zM868.2496 261.7856l-7.1168-50.688-134.8608 18.8928 7.1168 50.688zM222.208 669.2864l41.216 30.464 66.9696-90.5728-41.1648-30.4128zM373.5552 708.8128l50.4832-8.5504-20.2752-119.1424-50.4832 8.6016zM160.1536 539.4432l17.0496 48.3328 128.4096-45.312-16.9984-48.2816z"  horiz-adv-x="1024" />

    
    <glyph glyph-name="yab_h5_list" unicode="&#58942;" d="M716.8 409.6H307.2v-51.2h409.6v51.2zM716.8 550.912H307.2v-51.2h409.6v51.2zM681.472 262.65599999999995H307.2v-51.2h374.272v51.2zM632.832 153.08799999999997L716.8 237.05600000000004l-83.968 83.968v-167.936zM870.4 76.79999999999995H153.6V691.2h716.8zM204.8 128h614.4V640H204.8z"  horiz-adv-x="1024" />

    
    <glyph glyph-name="yab_strategy" unicode="&#59081;" d="M511.27 343.36l-75.77 75.76L405.33 389l105.6-105.64 18.1 18.1 0.34-0.34L680.22 452 650 482.13zM256 392.27V647.84l277.33 77.5 277.33-77.5v-255.57c0-153.69-117.21-283.25-277.2-323.11C373.21 109 256 238.58 256 392.27z"  horiz-adv-x="1024" />

    
    <glyph glyph-name="yab_h5_l_blue" unicode="&#59090;" d="M204.8 691.2v-614.4h614.4V691.2z m409.6-452.096H438.784V540.1600000000001h47.616V281.6H614.4z"  horiz-adv-x="1024" />

    
    <glyph glyph-name="yab_h5_r_blue" unicode="&#59091;" d="M512 502.272h-45.568v-102.4H512c44.032 0 67.584 17.92 67.584 54.272s-24.064 48.128-67.584 48.128zM204.8 691.2v-614.4h614.4V691.2z m377.344-452.096l-68.608 121.344h-51.2v-121.344h-43.52V540.1600000000001h98.816c62.464 0 109.056-22.016 109.056-87.04A83.968 83.968 0 0 0 563.2 366.592l73.728-127.488z"  horiz-adv-x="1024" />

    
    <glyph glyph-name="yab_h5_m_blue" unicode="&#59092;" d="M204.8 691.2v-614.4h614.4V691.2z m442.368-452.096h-43.008V388.096c0 27.136 3.584 66.048 6.144 93.184l-24.064-69.632-51.2-143.872h-32.256l-51.2 143.872-25.6 69.632c0-27.648 5.632-66.56 5.632-93.184v-148.992h-44.032V540.1600000000001h54.272l55.296-153.6c7.168-19.968 13.312-40.448 19.968-60.928 7.168 20.48 12.8 40.96 19.456 60.928l54.272 153.6h54.784z"  horiz-adv-x="1024" />

    
    <glyph glyph-name="yab_h5_ctrl_blue" unicode="&#59093;" d="M51.2 691.2v-614.4h921.6V691.2z m291.328-435.712c-66.56 0-117.248 51.2-117.248 135.68a122.88 122.88 0 0 0 120.32 138.24 102.4 102.4 0 0 0 74.752-33.28l-22.528-26.624a70.144 70.144 0 0 1-51.2 23.552c-45.568 0-77.312-37.888-77.312-102.4s29.184-102.4 75.776-102.4a76.8 76.8 0 0 1 58.368 28.16l22.016-26.112a102.4 102.4 0 0 0-81.92-34.816z m179.2 0C478.208 255.48800000000006 460.8 281.6 460.8 325.12V424.448h-26.624v30.72h30.72l4.608 56.832h34.816v-54.272h51.2v-32.768h-51.2v-102.4c0-23.552 8.192-35.84 28.672-35.84a58.368 58.368 0 0 1 20.992 4.608l7.68-30.72a126.464 126.464 0 0 0-38.912-5.12z m184.32 166.912a58.368 58.368 0 0 1-19.456 3.072c-16.384 0-35.328-11.264-48.128-42.496v-122.88h-40.96V457.728h33.792l3.072-35.328a68.096 68.096 0 0 0 55.808 40.448 51.2 51.2 0 0 0 22.016-4.096z m78.848-166.912c-29.696 0-40.96 18.944-40.96 51.2V546.304h40.96v-241.664c0-11.264 5.12-14.848 10.24-14.848h6.656l5.632-31.232a66.048 66.048 0 0 0-21.504-3.072z"  horiz-adv-x="1024" />

    
    <glyph glyph-name="yab_h5_shift_blue" unicode="&#59094;" d="M0 691.2v-614.4h1024V691.2z m212.992-454.656a131.584 131.584 0 0 0-94.208 38.912l24.576 28.672a102.4 102.4 0 0 1 70.144-31.232c31.744 0 51.2 14.848 51.2 37.376s-17.92 31.744-42.496 42.496l-36.352 15.872A75.776 75.776 0 0 0 131.072 435.2a78.336 78.336 0 0 0 87.04 72.704 113.152 113.152 0 0 0 79.872-33.28l-22.016-26.624a83.968 83.968 0 0 1-57.856 23.552c-27.136 0-44.544-12.8-44.544-34.304s20.992-31.232 42.496-39.936l36.352-15.36A73.728 73.728 0 0 0 307.2 313.34400000000005a81.92 81.92 0 0 0-94.208-76.8z m303.104 4.608h-41.472v118.784c0 34.304-10.24 47.616-33.28 47.616a67.584 67.584 0 0 1-48.64-27.136v-139.776h-40.96V526.848h40.96v-114.688a91.648 91.648 0 0 0 64 31.232c41.984 0 60.416-28.16 60.416-78.336z m99.84 0h-40.96V438.272H614.4z m-20.48 233.984a24.576 24.576 0 1 0 26.624 24.576 24.576 24.576 0 0 0-27.136-24.576z m170.496-36.864v-32.768h-39.936v-164.352h-41.472V405.504h-26.624V435.2h26.624v27.648c0 40.448 18.432 68.608 62.464 68.608a89.6 89.6 0 0 0 34.816-6.656l-8.192-30.72a51.2 51.2 0 0 1-21.504 5.12c-17.408 0-26.112-11.264-26.112-35.328v-25.088z m102.4-201.728c-44.544 0-59.904 27.648-59.904 69.12V405.504h-28.672V435.2h30.208l4.608 54.272h34.816v-51.2h51.2v-32.768h-51.2v-102.4c0-23.552 8.192-35.84 28.672-35.84a58.368 58.368 0 0 1 20.992 4.608l7.68-30.72a126.976 126.976 0 0 0-39.424-4.608z"  horiz-adv-x="1024" />

    
    <glyph glyph-name="yab_alt_blue" unicode="&#59095;" d="M102.4 691.2v-614.4h819.2V691.2z m358.4-431.104l-22.016 75.264H345.088l-22.528-75.264h-42.496l87.552 264.192h48.128l87.552-263.68z m116.224-4.608c-29.696 0-40.96 18.944-40.96 51.2V546.304h40.96v-241.664c0-11.264 5.12-14.848 10.24-14.848h6.656l5.12-31.232a65.536 65.536 0 0 0-24.064-3.072z m132.096 0c-44.544 0-59.904 27.648-59.904 69.12V424.448h-28.672v30.72h30.208l4.608 54.272h34.816v-51.712h51.2v-32.768h-51.2v-102.4c0-23.552 8.192-35.84 28.672-35.84a58.368 58.368 0 0 1 20.992 4.608l7.68-30.72a126.976 126.976 0 0 0-39.936-5.12zM390.144 491.52c-7.68-30.208-15.872-59.392-24.576-88.064l-10.752-35.328h72.192l-10.24 35.328c-7.168 29.184-16.896 58.368-25.6 88.064z"  horiz-adv-x="1024" />

    
    <glyph glyph-name="yab_groud" unicode="&#59097;" d="M85.33 866.13h85.33V12.8H85.33zM170.67 610.13h512v-85.33h-512zM597.33 738.13h341.33V396.8H597.33zM170.67 98.13h512v-85.33h-512zM597.33 226.13h341.33v-341.33H597.33z"  horiz-adv-x="1024" />

    
    <glyph glyph-name="yab_mlj" unicode="&#59099;" d="M42.67 810.67v-853.34h938.66V810.67z m349-485.73L208.16 141.42l-60.34 60.34 183.52 183.52-181 181 60.34 60.34 241.4-241.4-60.34-60.34z m461.66-190.23H426.67V220h426.66z"  horiz-adv-x="1024" />

    
    <glyph glyph-name="yab_ml" unicode="&#59101;" d="M726.77 674.927l296.405-296.405-60.338-60.337L666.432 614.59zM671.857 147.988L960.279 436.41l60.337-60.337L732.194 87.65zM357.577 614.58L61.172 318.177 0.835 378.513 297.24 674.918zM291.811 87.647L3.39 376.07l60.337 60.337 288.422-288.421zM568.244 774.656l82.422-22.085-203.432-759.218-82.422 22.085z"  horiz-adv-x="1024" />

    
    <glyph glyph-name="yab_setting" unicode="&#59102;" d="M511.84 258.31l0.46-0.46L663.15 408.7 633 438.87 511.84 317.73 390.7 438.87l-30.17-30.17 150.85-150.85z m-1-194.31L192 404.57 323.3 640h375.16L832 404.57z"  horiz-adv-x="1024" />

    
    <glyph glyph-name="yab_workorder" unicode="&#59103;" d="M597.33 725.33v-170.66H768v-512H256V725.33z m-256-256v-42.67h213.34v42.67z m0-128v-42.67h256v42.67z m0-128v-42.67H640v42.67zM772 587.52H640V724z"  horiz-adv-x="1024" />

    
    <glyph glyph-name="yab_record" unicode="&#59104;" d="M384 682.67v-85.33h256v85.33h149.33v-640H234.67v640z m-85.33-213.34v-42.67h426.66v42.67z m0-128v-42.67h426.66v42.67z m0-128v-42.67h426.66v42.67zM426.67 725.33h170.67V640H426.67z"  horiz-adv-x="1024" />

    
    <glyph glyph-name="yab_who" unicode="&#59106;" d="M213.333333 705.706667v-643.413334h597.333334V705.706667zM421.973333 554.666667h179.626667v-91.733334a120.746667 120.746667 0 0 0-85.333333-115.2h-7.68a120.746667 120.746667 0 0 0-85.333334 115.2z m273.493334-341.333334H328.106667v72.533334l8.533333 2.986666a507.306667 507.306667 0 0 0 350.72 0l8.533333-3.413333z"  horiz-adv-x="1024" />

    
    <glyph glyph-name="yab_host" unicode="&#59108;" d="M170.67 704h682.66v-149.33H170.67z m42.67-42.67v-64h64v64z m106.67 0v-64h64v64z m106.67 0v-64h64v64z m213.33 0v-64h149.32v64zM170.67 469.33h682.66V320H170.67z m42.67-42.67v-64h64v64z m106.67 0v-64h64v64z m106.67 0v-64h64v64z m213.33 0v-64h149.32v64zM170.67 234.67h682.66v-149.34H170.67zM213.33 192v-64h64v64zM320 192v-64h64v64z m106.67 0v-64h64v64zM640 192v-64h149.33v64z"  horiz-adv-x="1024" />

    
    <glyph glyph-name="yab_app" unicode="&#59109;" d="M533.33 368.38l203.23 117.34-21.33 37L512 405.33h-7.25L301.52 522.67l-21.33-37L490.67 364.2v-214.87h42.67zM512 725.33l295.6-170.66v-341.34L512 42.67 216.4 213.33V554.67z"  horiz-adv-x="1024" />

    
    <glyph glyph-name="yab_server" unicode="&#59110;" d="M256 725.33h512v-682.66H256z m106.67-64v-106.66h298.66V661.33z m0-149.33v-42.67h298.66V512z m0-85.33V384h298.66v42.67z m149.33-320a42.67 42.67 0 1 1-42.67 42.67A42.67 42.67 0 0 1 512 106.67z m0 128A21.33 21.33 0 1 1 490.67 256 21.33 21.33 0 0 1 512 234.67z"  horiz-adv-x="1024" />

    
    <glyph glyph-name="yab_alert" unicode="&#59111;" d="M512 704L192 64h640z m21.33-533.33h-42.66v42.66h42.67zM490.67 256V448h42.67v-192z"  horiz-adv-x="1024" />

    
    <glyph glyph-name="yab_log" unicode="&#59112;" d="M490.67 213.33000000000004h42.67V128h-42.67zM341.33 128h341.33v-42.67H341.33zM465.58 524.5699999999999l71.18-71.18-0.06-0.06 3.36-3.25 1-1 9.48-9.16 51.81 50.74h141.81V512H593.28l-8.39-9-33.27-34.26-70.88 70.88-15.08 15.08-15.08-15.08L423 512H277.33v-21.33h153.15l0.71-0.1zM853.33 320H170.67V682.67h682.66z m0-42.67v-64H170.67v64z"  horiz-adv-x="1024" />

    
    <glyph glyph-name="yab_diolog" unicode="&#59114;" d="M748.88 244.53V288.8a430.37 430.37 0 0 1-161.2 31.2h-0.14q-15.39 0-30.51-1.07a430.89 430.89 0 0 0 135 21.63h0.14a430.37 430.37 0 0 0 161.2-31.2v-64.81zM692.34 364.11v0.07-0.07a108.26 108.26 0 0 0-78.7 104.14v82.36H771v-82.37a108.26 108.26 0 0 0-78.7-104.14zM407.38 290.27h0.11a690 690 0 0 0 258.45-50v-103.95H149.33V240.45a689.83 689.83 0 0 0 257.94 49.82z m0.3 37.76l-0.06 0.12-0.06-0.12A173.57 173.57 0 0 0 281.38 495V627.06h252.49V495a173.57 173.57 0 0 0-126.18-167z"  horiz-adv-x="1024" />

    
    <glyph glyph-name="yab_mlml" unicode="&#59115;" d="M230.4 640v-512h563.2V640z m209.41-291.44L329.69 238.45000000000005l-36.2 36.2L403.6 384.77 295 493.35l36.2 36.2L476 384.73l-36.2-36.2z m277-114.14h-256v51.2h256z"  horiz-adv-x="1024" />

    
    <glyph glyph-name="jiaicon" unicode="&#58931;" d="M512.495-57.67c-243.997 0-442.505 198.493-442.505 442.505 0 243.997 198.508 442.505 442.505 442.505C756.507 827.34 955 628.832 955 384.835c0-244.012-198.493-442.505-442.505-442.505z m0 826.009c-211.472 0-383.504-172.032-383.504-383.504 0-211.457 172.032-383.504 383.504-383.504 211.457 0 383.504 172.047 383.504 383.504 0 211.472-172.046 383.504-383.504 383.504zM482.995 591.337h59.001v-413.004h-59.001zM305.993 414.335h413.004v-59.001H305.993z"  horiz-adv-x="1024" />

    
    <glyph glyph-name="ziyuan" unicode="&#58943;" d="M0 896v-1024h1024V896z m434.42-738.46l-258.6 258.59 51.72 51.72L434.42 261l362 362 51.72-51.72z"  horiz-adv-x="1024" />

    
    <glyph glyph-name="ziyuan1" unicode="&#58944;" d="M874 746C674.09 946 349.91 946 150 746s-200-524.09 0-724 524.09-200 724 0 200 524.09 0 724zM744.73 203L693 151.26l-181 181-181-181L279.26 203l181 181-181 181L331 616.74l181-181 181 181L744.73 565l-181-181z"  horiz-adv-x="1024" />

    
    <glyph glyph-name="yab_note_tips" unicode="&#59116;" d="M512 813.01231019a429.01231019 429.01231019 0 1 0-429.01231019-429.01231019 429.01231019 429.01231019 0 0 0 429.01231019 429.01231019m0 71.50205223a500.51436242 500.51436242 0 1 1 500.51436242-500.51436242 500.51436242 500.51436242 0 0 1-500.51436242 500.51436242zM465.52366695 474.80760623h92.9526661v-357.51025963h-92.9526661zM465.52366695 650.7026534h92.9526661v-92.95266778h-92.9526661z"  horiz-adv-x="1024" />

    
    <glyph glyph-name="yab_h_paste" unicode="&#59117;" d="M153.6 640v-614.4h512V640z m460.8-563.2H204.8v512h409.6zM358.4 742.4V640h51.2v51.2h409.6v-512H665.6V128h204.8V742.4h-512zM307.2 384H512v-51.2H307.2zM384 460.8h51.2V256H384z"  horiz-adv-x="1024" />

    
    <glyph glyph-name="yab_h_copy" unicode="&#59118;" d="M153.6 640v-614.4h512V640z m460.8-563.2H204.8v512h409.6zM358.4 742.4v-102.4h51.2v51.2h409.6v-512H665.6v-51.2h204.8V742.4h-512z"  horiz-adv-x="1024" />

    
    <glyph glyph-name="yab_window" unicode="&#59120;" d="M153.6 691.2v-614.4h716.8V691.2zM819.2 128H204.8V640h614.4zM204.8 486.4h614.4v-51.2H204.8zM281.6 563.2m-25.6 0a25.6 25.6 0 1 1 51.2 0 25.6 25.6 0 1 1-51.2 0ZM384 563.2m-25.6 0a25.6 25.6 0 1 1 51.2 0 25.6 25.6 0 1 1-51.2 0Z"  horiz-adv-x="1024" />

    
    <glyph glyph-name="yab_meau" unicode="&#59121;" d="M204.8 691.2v-256h256v256z m204.8-204.8H256V640h153.6zM563.2 691.2v-256h256v256zM768 486.4H614.4V640H768zM204.8 332.8v-256h256v256zM409.6 128H256V281.6h153.6zM563.2 332.8v-256h256v256zM768 128H614.4V281.6H768z"  horiz-adv-x="1024" />

    
    <glyph glyph-name="yab_words" unicode="&#59122;" d="M230.4 691.2h563.2V640H230.4zM486.4 691.2h51.2v-614.4h-51.2z"  horiz-adv-x="1024" />

    
    <glyph glyph-name="yab_download_center" unicode="&#59123;" d="M486.4 742.21h51.2v-512h-51.2zM204.8 76.61000000000001h614.4v-51.2H204.8zM656.82 413.8L512 268.99 367.19 413.8l-36.21-36.2L512 196.58000000000004 693.02 377.6l-36.2 36.2z"  horiz-adv-x="1024" />

    
    <glyph glyph-name="yab_login_download" unicode="&#59125;" d="M512 742.4c-197.94 0-358.4-160.46-358.4-358.4S314.06 25.6 512 25.6 870.4 186.06 870.4 384 709.94 742.4 512 742.4z m65.6-424L520 145.6 376 520l374.4-144z"  horiz-adv-x="1024" />

    
    <glyph glyph-name="yab_download_tools" unicode="&#59127;" d="M537.6 261.48V604.11h-51.2v-342.73l25.55-25.55 25.65 25.65zM537.6 261.48l-25.65-25.65-25.55 25.55-82.87 82.87-36.2-36.2 108.42-108.42 36.11-36.11 36.2 36.2 108.61 108.61-36.11 36.11-82.96-82.96zM512 742.21c-197.94 0-358.4-160.46-358.4-358.4s160.46-358.4 358.4-358.4 358.4 160.46 358.4 358.4-160.46 358.4-358.4 358.4z m0-665.6c-169.66 0-307.2 137.54-307.2 307.2S342.34 691 512 691s307.2-137.54 307.2-307.2S681.66 76.61 512 76.61z"  horiz-adv-x="1024" />

    
    <glyph glyph-name="yab_notice" unicode="&#58933;" d="M549.248798 17.176848a27.252716 27.252716 0 0 0-18.339448 7.089581l-266.714159 240.076937H109.842921C65.68691 264.343366 0 293.613535 0 374.186287V538.967765c0 44.156011 29.270169 109.854319 109.842921 109.854319h154.23829L530.85236 888.944613a27.492075 27.492075 0 0 0 45.865717-20.42529v-823.884595a27.355298 27.355298 0 0 0-27.469279-27.45788z m-439.405877 576.740872c-52.282814 0-54.915761-45.751736-54.915762-54.915761v-164.815672c0-52.225824 45.751736-54.927159 54.915762-54.92716h164.781478a27.150134 27.150134 0 0 0 18.350846-7.078183l228.815672-205.860018V806.833126l-228.758682-205.860018a27.469279 27.469279 0 0 0-18.407836-7.089582z m576.740872 27.469279a27.435085 27.435085 0 0 0-19.445057 46.845948l109.854318 109.854319a27.479537 27.479537 0 0 0 38.81033-38.912912l-109.854319-109.84292a27.22992 27.22992 0 0 0-19.37667-7.978629z m164.758683-192.239359H686.560997a27.469279 27.469279 0 0 0 0 54.92716h164.781479a27.469279 27.469279 0 0 0 0-54.92716z m-54.92716-302.048085a27.708638 27.708638 0 0 0-19.445058 7.978628l-109.854319 109.854319a27.45902 27.45902 0 0 0 38.833126 38.833126l109.854319-109.934105a27.435085 27.435085 0 0 0-19.37667-46.845949z m0 0"  horiz-adv-x="1192" />

    
    <glyph glyph-name="yab_shell" unicode="&#59126;" d="M653.94 810.66H156.45v-853.33h711.1v640zM343.19 274a45.68 45.68 0 0 0-14.91-15.44 61 61 0 0 0-21-8.18 119.73 119.73 0 0 0-24-2.38 118.49 118.49 0 0 0-24.48 2.49 65.11 65.11 0 0 0-21.27 8.37 47.73 47.73 0 0 0-15.31 15.4c-4 6.41-6.15 14.42-6.5 24h37.47a25.38 25.38 0 0 1 2.85-10.68 23.75 23.75 0 0 1 6.77-7.48 28.13 28.13 0 0 1 9.61-4.27 47.25 47.25 0 0 1 11.22-1.42 43.15 43.15 0 0 1 8.72 1 31.28 31.28 0 0 1 8.37 3 19.52 19.52 0 0 1 6.23 5.52 14.45 14.45 0 0 1 2.49 8.72c0 6-3.92 10.33-11.84 13.36s-18.87 6-32.93 8.9q-8.55 2-16.83 4.54a59.89 59.89 0 0 0-14.6 6.94 33.18 33.18 0 0 0-10.23 10.86 30.87 30.87 0 0 0-3.92 15.94c0 9.25 1.78 16.82 5.43 22.79A40.29 40.29 0 0 0 238.86 390a62.56 62.56 0 0 0 20 7.21 120.32 120.32 0 0 0 22.79 2.05 111.58 111.58 0 0 0 22.63-2.19 62.44 62.44 0 0 0 19.58-7.48 46 46 0 0 0 14.33-14.06c3.83-5.88 6.05-13.18 6.77-22.08h-37.48c-0.53 7.56-3.47 12.73-8.63 15.4a39.4 39.4 0 0 1-18.34 4 70.35 70.35 0 0 1-7.21-0.45 24.79 24.79 0 0 1-7.12-1.78 14.11 14.11 0 0 1-5.43-4 10.54 10.54 0 0 1-2.23-7.13 10.89 10.89 0 0 1 3.92-8.63 30.29 30.29 0 0 1 10.15-5.43 109.88 109.88 0 0 1 14.33-3.74c5.34-1.07 10.86-2.31 16.38-3.65 5.69-1.34 11.3-2.85 16.82-4.71a55.33 55.33 0 0 0 14.6-7.39 35 35 0 0 0 10.24-11.4c2.58-4.54 3.91-10.15 3.91-16.82 0.01-9.42-1.86-17.34-5.68-23.72z m163.51-22.07h-39.42V333c0 11.83-1.87 20.65-5.52 26.52s-10.23 8.73-19.76 8.73c-10.77 0-18.51-3.2-23.32-9.62s-7.21-16.91-7.21-31.51v-75.3h-39.43v198.3h39.43v-74.68h0.8c5 8.36 11.4 14.42 19.14 18.16a51.27 51.27 0 0 0 22.79 5.7c10.59 0 19.22-1.43 26-4.28a37.9 37.9 0 0 0 15.93-11.93 46.05 46.05 0 0 0 8.15-18.6 113.71 113.71 0 0 0 2.4-24.3z m72.2 34.45c6-5.7 14.41-8.64 25.54-8.64 7.92 0 14.78 2 20.56 6s9.26 8.19 10.6 12.64h34.68c-5.49-17.25-14-29.63-25.52-37.02s-25.36-11.12-41.66-11.12c-11.3 0-21.44 1.77-30.53 5.42a64.16 64.16 0 0 0-23 15.4 69.68 69.68 0 0 0-14.6 23.87 86.17 86.17 0 0 0-5.16 30.52 84.63 84.63 0 0 0 5.25 30 70.79 70.79 0 0 0 15 24 69.9 69.9 0 0 0 23.14 15.97 73.92 73.92 0 0 0 29.82 5.88c12.19 0 22.87-2.41 31.95-7.12a62.83 62.83 0 0 0 22.31-19.05 76.52 76.52 0 0 0 12.64-27.24 102 102 0 0 0 2.76-32H569.19c0.54-12.6 3.83-21.89 9.71-27.55z m157.73-34.58h-39.44V450.12h39.44z m71.65 0h-39.43V450.12h39.43zM601.95 369.56c-6.32 0-11.48-1.06-15.67-3.2a30 30 0 0 1-10-7.92 28.45 28.45 0 0 1-5.25-10 47.87 47.87 0 0 1-1.75-9.44h64.18c-2 10.06-5.25 17.63-10 22.79s-11.9 7.77-21.51 7.77zM867.56 597.33H654.22V810.67M867.56 597.33H654.22V810.67"  horiz-adv-x="1024" />

    
    <glyph glyph-name="yab_python" unicode="&#59128;" d="M506.92 810.66a594.38 594.38 0 0 1-98.36-8.31c-87.09-15.22-102.91-47.07-102.91-105.82v-77.59h205.82v-25.86H228.4c-59.81 0-112.19-35.56-128.58-103.21-18.89-77.54-19.74-125.93 0-206.9 14.64-60.27 49.58-103.22 109.39-103.22h70.77v93c0 67.2 58.78 126.47 128.58 126.47h205.63c57.23 0 102.91 46.6 102.91 103.45V696.53c0 55.17-47.06 96.61-102.91 105.82a649.24 649.24 0 0 1-107.27 8.31z m-111.31-62.41a38.83 38.83 0 0 0 38.58-38.91 38.67 38.67 0 0 0-38.62-38.67 38.62 38.62 0 0 0-38.62 38.67 38.78 38.78 0 0 0 38.66 38.91z m347.12-155.17v-90.4c0-70.09-60.08-129.07-128.58-129.07H408.56c-56.31 0-102.91-47.67-102.91-103.46V76.3c0-55.16 48.5-87.62 102.91-103.45 65.15-19 127.63-22.37 205.59 0 51.81 14.85 102.91 44.71 102.91 103.45v77.59H511.47v25.86h308.5c59.83 0 82.11 41.27 102.92 103.22 21.49 63.77 20.58 125.09 0 206.9-14.79 58.89-43 103.21-102.92 103.21zM627.1 102.17a38.63 38.63 0 0 0 38.63-38.68 38.79 38.79 0 0 0-38.63-38.91 38.84 38.84 0 0 0-38.62 38.91 38.68 38.68 0 0 0 38.62 38.68z"  horiz-adv-x="1024" />

    
    <glyph glyph-name="yab_folder" unicode="&#59129;" d="M938.67 23H85.33V745h242.15l122.88-60.32h488.31z"  horiz-adv-x="1024" />

    
    <glyph glyph-name="yab_cut" unicode="&#59130;" d="M935 896H89C40.07 896 0 855.93 0 807v-846a89.3 89.3 0 0 1 89-89h846a89.3 89.3 0 0 1 89 89V807c0 48.93-40.07 89-89 89zM804.57 347.43H219.43v73.14h585.14z"  horiz-adv-x="1024" />

    
    <glyph glyph-name="yab_add1" unicode="&#59131;" d="M935 896H89C40.07 896 0 855.93 0 807v-846a89.3 89.3 0 0 1 89-89h846a89.3 89.3 0 0 1 89 89V807c0 48.93-40.07 89-89 89zM804.57 347.43h-256v-256h-73.14v256h-256v73.14h256v256h73.14v-256h256z"  horiz-adv-x="1024" />

    
    <glyph glyph-name="yab_txt" unicode="&#59132;" d="M653.94 810.67h-497.5v-853.34h711.12v640z m17.19-335.56h-123.4v-363.33h-65.94V475.11H359v55.14h312.13zM867.56 597.33H654.22V810.67"  horiz-adv-x="1024" />

    
    <glyph glyph-name="yab_h_radmin" unicode="&#59148;" d="M841.14-91.43H182.86A146.29 146.29 0 0 0 36.57 54.86V713.14A146.29 146.29 0 0 0 182.86 859.43h658.28a146.29 146.29 0 0 0 146.29-146.29v-658.28a146.29 146.29 0 0 0-146.29-146.29z m-256 768H182.86v-402.28c0-40.4 73.14-73.15 73.14-73.15V603.43h402.29a73.14 73.14 0 0 1-73.15 73.14z m146.29-146.28H329.14v-329.15a109.71 109.71 0 0 1 109.72-109.71h348.9L585.14 294v-129.43S512 197.32 512 237.71V420.57h182.86A73.14 73.14 0 0 0 768 347.43H638.53l202.61-202.61V420.57a109.71 109.71 0 0 1-109.71 109.72z"  horiz-adv-x="1024" />

    
    <glyph glyph-name="zssvgarrowdown" unicode="&#59165;" d="M333.165714 347.428571l172.617143 172.617143L678.765714 347.428571l40.594286 40.594286-213.577143 213.211429L292.571429 388.022857zM333.165714 164.571429l172.617143 172.617142L678.765714 164.571429l40.594286 40.594285-213.577143 213.211429L292.571429 205.165714z"  horiz-adv-x="1024" />

    
    <glyph glyph-name="zssvgarrowdown1" unicode="&#59166;" d="M690.898824 420.542745L517.722353 247.767843 345.248627 420.542745l-40.156862-40.156863L517.722353 166.65098 731.457255 379.984314zM690.898824 603.457255L517.722353 430.682353 345.248627 603.457255l-40.156862-40.156863L517.722353 349.56549l213.734902 213.333334z"  horiz-adv-x="1024" />

    
    <glyph glyph-name="switch" unicode="&#59167;" d="M691.565714 128H380.342857v43.885714h307.2v307.2H731.428571V128zM497.371429 230.4V274.285714h46.445714l-128.365714 146.285715v-58.514286H365.714286V493.714286h131.657143v-51.931429H452.022857L585.142857 298.057143V362.057143h43.885714v-131.657143H497.371429z m87.771428 329.142857H300.251429V274.285714H431.542857v-43.885714H256V603.428571h373.028571v-153.6H585.142857z"  horiz-adv-x="1024" />

    
    <glyph glyph-name="ziyuan5" unicode="&#59173;" d="M648.66 547.84c-99.24 0-173.29-39.39-173.29-74.83s74-74.83 173.29-74.83c99.65 0 173.3 39.38 173.3 74.83s-74.05 74.83-173.3 74.83zM787.69 896H236.31C105.8 896 0 790.2 0 659.69v-551.38C0-22.2 105.8-128 236.31-128h551.38C918.2-128 1024-22.2 1024 108.31V659.69C1024 790.2 918.2 896 787.69 896zM393.85 122.88h-18.51c-108.71 0-196.93 44.11-196.93 98.46V595.5c0 54.35 89 98.46 196.93 98.46s196.92-43.33 196.92-96.89l-23.63-2.76c0 35.45-73.65 74.83-173.29 74.83S202 628.58 202 593.13s74.44-74.83 173.3-74.83c9.84 0 18.9 2 28 2a64.93 64.93 0 0 1-8.67-24.42h-19.29A263.88 263.88 0 0 0 202 548.63v-326.11c0-35.44 74.44-74.83 173.3-74.83h18.51z m-52.78 200.86v63h23.63v-63A65.77 65.77 0 0 1 430.47 258h75.23v37.38l85.07-49.23-83.89-49.23v37.42h-76.41a89.41 89.41 0 0 0-89.4 89.4z m504.52-224.88c0-54.36-87.83-98.47-196.93-98.47s-196.92 44.11-196.92 98.47v96.09h23.63v-96.09c0-35.45 74.44-74.84 173.29-74.84S822 63.41 822 98.86V426.93a263.88 263.88 0 0 0-173.3-52.38 262.31 262.31 0 0 0-173.29 52.38v-129.58h-23.67V473c0 54.35 87.83 98.46 196.92 98.46 108.71 0 196.93-44.11 196.93-98.46z"  horiz-adv-x="1024" />

    
    <glyph glyph-name="ziyuan6" unicode="&#59174;" d="M656 587.38c0-7.82-7.2-15.65-14.4-15.65s-14.4 7.83-14.4 15.65V603H396.8v-15.64c0-7.82-7.2-15.65-14.4-15.65s-14.4 7.85-14.4 15.67V603h-57.6v-93.86h403.2V603H656zM310.4 133.69h403.2V477.87H310.4z m155.42 254h30.69v31.66c0 7.93 7.68 15.85 15.35 15.85s15.34-7.92 15.34-15.85v-31.69h30.7c7.67 0 15.34-7.92 15.34-15.85S565.57 356 557.9 356h-30.7v-31.69c0-7.93-7.67-15.85-15.34-15.85s-15.35 7.92-15.35 15.85V356h-30.69c-7.67 0-15.34 7.92-15.34 15.84s7.67 15.82 15.34 15.82z m-92.07-110.95H650c7.67 0 15.35-7.93 15.35-15.85S657.64 245 650 245H373.75c-7.68 0-15.35 7.92-15.35 15.84s7.67 15.9 15.35 15.9z m0-63.39H650c7.67 0 15.35-7.92 15.35-15.85s-7.68-15.84-15.35-15.84H373.75c-7.68 0-15.35 7.92-15.35 15.84s7.67 15.85 15.35 15.85zM512 896C229.23 896 0 666.77 0 384s229.23-512 512-512 512 229.23 512 512S794.77 896 512 896z m230.4-778c0-7.83-7.2-15.65-14.4-15.65H296c-7.2 0-14.4 7.82-14.4 15.65V618.67c0 7.82 7.2 15.64 14.4 15.64h72V650c0 7.82 7.2 15.64 14.4 15.64s14.4-7.82 14.4-15.64v-15.65h230.4V650c0 7.82 7.2 15.64 14.4 15.64S656 657.78 656 650v-15.65h72c7.2 0 14.4-7.82 14.4-15.64z"  horiz-adv-x="1024" />

    
    <glyph glyph-name="ziyuan7" unicode="&#59175;" d="M303.27 632.12h417.46v-90.58H303.27zM720.73 511.18H303.27v-375.3h417.46z m-267.81-343h-78.77v40.34h78.77z m0 121.07h-78.77v40.33h78.77z m0 121.06h-78.77v40.34h78.77z m196.93-242.15h-78.77v40.36h78.77z m0 121.07h-78.77v40.35h78.77z m0 121.06h-78.77v40.36h78.77zM512 896C229.23 896 0 666.77 0 384s229.23-512 512-512 512 229.23 512 512S794.77 896 512 896z m236.31-787.69H275.69V659.69h472.62z"  horiz-adv-x="1024" />

    
    <glyph glyph-name="ziyuan8" unicode="&#59196;" d="M439.6 852.18l-22 0.06c-53 0.15-163.38 0.48-190.75-2-72.38-6.52-134.79-65.54-145.13-137.31-2.68-20.54-3-61.42-3.33-94.25-0.13-14.69-0.25-28-0.54-37.57v-37l-16.77 16.52a34 34 0 0 1-3.25 2.76 39.71 39.71 0 0 0-3.71 3.14c-3.83 3.31-10.19 7.47-17.61 7.47-5.08 0-10.66-1.94-16.23-7.48-9.22-9.87-8.85-22.81 1.25-33.52 10.21-10.12 20.67-20.73 31.13-31.35s20.81-21.09 31.21-31.4c10.85-9.29 25.77-9 35.81 1l63.59 63c9.08 9.69 9.08 22.58-0.26 32.54-9 9.65-22 9.73-33.1 0.25a66.38 66.38 0 0 0-8.52-7.35L125.7 548.1v117c0 14 0 28.61 3.21 43.42 11.83 56.54 59.54 95.31 118.73 96.38H437.6a23.54 23.54 0 0 1 23.94 23.64c0 12.82-10.05 23.64-21.94 23.64zM950.29 867.93H589.62c-20.54 0-28.9-8.55-28.9-29.54v-355.44c0-22.54 7.82-30.54 29.9-30.54 106.35-1 251.62-1 357.67-1 20.62 0 27.93 7.48 27.93 28.56V840.36c0.73 7.82-1.37 14.32-5.87 19.3-4.82 5.34-11.94 8.27-20.06 8.27z m-21.94-368.25H608.6V818.7h319.75zM1004.06 244.79999999999995c-21.8 22.59-43.46 44-66.17 65.58a20.4 20.4 0 0 1-29 0.15 2114.712 2114.712 0 0 1-67.38-66.79 20.48 20.48 0 0 1-6.51-14.86 23.46 23.46 0 0 1 7.28-16.62c9.91-9.83 22.93-10.12 33.1-0.71a71.6 71.6 0 0 0 8.77 7.56l15.69 11.59v-19.52c0-8.42 0.1-20.21 0.19-33.32 0.24-31.27 0.52-70.2-0.19-89.12-2.17-58-50.38-108.6-107.48-112.83-24.81-1.69-124.36-1.3-177.83-1.11l-25.53 0.08a23.64 23.64 0 1 1 0-47.27l39.61-0.16c52.16-0.23 139.37-0.54 160.77 0.16 78.23 2.8 148 67.73 155.45 144.73 2.42 23.92 2.19 75.34 2 109.36v53.1l24.71-24.48c9.61-8.12 24.44-8 32.56 0.69 8.29 9.71 8.43 24.65-0.04 33.79zM438.29 316.54999999999995H77.62c-20.54 0-28.9-8.56-28.9-29.54v-355.44c0-22.57 7.82-30.57 29.9-30.57 106.37-1 251.39-1 357.67-1 20.62 0 27.93 7.46 27.93 28.54V289c0.73 7.83-1.37 14.33-5.87 19.31-4.82 5.3-11.94 8.24-20.06 8.24zM416.35-51.700000000000045H96.6v319h319.75z"  horiz-adv-x="1024" />

    
    <glyph glyph-name="ziyuan9" unicode="&#59197;" d="M216.62 856.62h787.69v-787.7h-57V799.73H216.62zM590.77 333.67999999999995v-56.89H275.69v56.89zM19.69 699v0.06h827.08v-787.7H19.69z m778.94-739.5h-0.06V650.94H67.89v-691.42z"  horiz-adv-x="1024" />

    
    <glyph glyph-name="ziyuan10" unicode="&#59198;" d="M986.07 62.360000000000014H720.59c-22.75 0-37.92-11.38-37.92-28.45s15.17-28.44 37.92-28.44h265.48c22.76 0 37.93 11.38 37.93 28.44 0 11.38-15.17 28.45-37.93 28.45z m0 227.55H720.59c-22.75 0-37.92-11.37-37.92-28.44S697.84 233 720.59 233h265.48c22.76 0 37.93 11.37 37.93 28.44 0 11.41-15.17 28.47-37.93 28.47z m0 227.56c22.76 0 37.93-11.38 37.93-28.44s-15.17-28.45-37.93-28.45H720.59c-22.75 0-37.92 11.38-37.92 28.45s15.17 28.44 37.92 28.44z m-476-625.78c-15.07 0-25.12 10.43-25.12 26.07V521.27c0 5.21 0 15.63 5 20.85L700.19 819H85.42l210.22-276.88c5-5.22 5-10.43 5-20.85v-441.92l40.2-36.49c10.05-10.43 15.07-26.06 5-36.49s-25.12-15.64-35.17-5.21l-50.24 41.7c-5 5.21-10.05 10.43-10.05 20.85V510.84L10.05 829.39C0 839.82 0 850.24 0 860.67a27.49 27.49 0 0 0 25.12 15.64h735.37a27.49 27.49 0 0 0 25.12-15.64c5-10.43 0-20.85-5-31.28L540.22 510.84v-593.08c0-15.64-15.08-26.07-30.15-26.07z"  horiz-adv-x="1024" />

    
    <glyph glyph-name="ziyuan12" unicode="&#59199;" d="M576.85 319.21000000000004H845.5v-41.12H576.85zM333.56 278.1V619.4200000000001h72.59v-56.88h41.2v98.02H178.5v-98.02h41.13v56.88h72.74V278.1h41.19zM178.63 148.55999999999995H845.5v-41.13H178.63zM576.85 489.89H845.5v-41.12H576.85zM576.85 660.56H845.5v-41.13H576.85zM1000.37-104.38H23.63V872.38h976.74zM70.9-57.139999999999986h882.2V825.11H70.9z"  horiz-adv-x="1024" />

    
    <glyph glyph-name="polyline1" unicode="&#59200;" d="M900.44-106.66999999999996H123.56A102.33 102.33 0 0 0 21.33-4.440000000000055V772.44A102.33 102.33 0 0 0 123.56 874.67h776.88a102.33 102.33 0 0 0 102.23-102.23v-776.88a102.33 102.33 0 0 0-102.23-102.23zM123.56 833.78a61.4 61.4 0 0 1-61.34-61.34v-776.88a61.4 61.4 0 0 1 61.34-61.34h776.88a61.4 61.4 0 0 1 61.34 61.34V772.44a61.4 61.4 0 0 1-61.34 61.34zM457.61 392.22l70.82-40.89 20.45 35.41 20.44 35.41 70.82-40.89 35.42-20.44 81.77 141.64-35.41 20.44-61.33-106.23L554.36 478l-20.45-35.41-20.44-35.4-70.82 40.88-20.45-35.41-61.33-106.23 35.41-20.44 61.33 106.23zM266.67 138.66999999999996V670.22h-40.89V97.77999999999997H798.22v40.89H266.67z"  horiz-adv-x="1024" />

    
    <glyph glyph-name="columnar1" unicode="&#59201;" d="M900.44-106.66999999999996H123.56A102.33 102.33 0 0 0 21.33-4.440000000000055V772.44A102.33 102.33 0 0 0 123.56 874.67h776.88a102.33 102.33 0 0 0 102.23-102.23v-776.88a102.33 102.33 0 0 0-102.23-102.23zM123.56 833.78a61.4 61.4 0 0 1-61.34-61.34v-776.88a61.4 61.4 0 0 1 61.34-61.34h776.88a61.4 61.4 0 0 1 61.34 61.34V772.44a61.4 61.4 0 0 1-61.34 61.34zM634.67 138.66999999999996V465.78h122.66v-327.11h40.89v-40.89H266.67v40.89h40.89V384h122.66v-245.33h40.89V629.3299999999999h122.67v-490.66z m40.89 0h40.88V424.89h-40.88z m-327.12 0h40.89V343.11h-40.89z m204.45 449.77H512v-449.77h40.89z"  horiz-adv-x="1024" />

    
    <glyph glyph-name="pie1" unicode="&#59202;" d="M900.44-106.66999999999996H123.56A102.33 102.33 0 0 0 21.33-4.440000000000055V772.44A102.33 102.33 0 0 0 123.56 874.67h776.88a102.33 102.33 0 0 0 102.23-102.23v-776.88a102.33 102.33 0 0 0-102.23-102.23zM123.56 833.78a61.4 61.4 0 0 1-61.34-61.34v-776.88a61.4 61.4 0 0 1 61.34-61.34h776.88a61.4 61.4 0 0 1 61.34 61.34V772.44a61.4 61.4 0 0 1-61.34 61.34zM512 97.77999999999997c-148.76 0-274.1 116.08-285.38 264.22l-1.68 22H512V671.1l22-1.68C682.16 658.12 798.22 532.74 798.22 384c0-157.81-128.39-286.22-286.22-286.22zM270.08 343.11C289.69 226.83000000000004 392 138.66999999999996 512 138.66999999999996c135.28 0 245.33 110.05 245.33 245.33 0 120-88.16 222.29-204.44 241.94v-282.83zM228.83 423.57l5.49 25.24c22.84 104.85 104.8 189.71 208.8 216.19l25 6.39 4.25-243.58z m199.38 194a247.66 247.66 0 0 1-146.95-152.19L430.8 468z"  horiz-adv-x="1024" />

    
    <glyph glyph-name="chart2" unicode="&#59203;" d="M900.44-106.66999999999996H123.56A102.33 102.33 0 0 0 21.33-4.440000000000055V772.44A102.33 102.33 0 0 0 123.56 874.67h776.88a102.33 102.33 0 0 0 102.23-102.23v-776.88a102.33 102.33 0 0 0-102.23-102.23zM123.56 833.78a61.4 61.4 0 0 1-61.34-61.34v-776.88a61.4 61.4 0 0 1 61.34-61.34h776.88a61.4 61.4 0 0 1 61.34 61.34V772.44a61.4 61.4 0 0 1-61.34 61.34zM430.22 159.11h163.56V281.78H430.22z m-40.89 0V281.78H266.67v-122.67z m40.89 163.56h163.56V445.33H430.22z m-40.89 0V445.33H266.67v-122.66z m245.34-163.56h122.66V281.78H634.67z m0 163.56h122.66V445.33H634.67z m122.66 286.22H266.67v-122.67h490.66z m40.89 0v-490.67H225.78V649.78h572.44z"  horiz-adv-x="1024" />

    
    <glyph glyph-name="ziyuan18" unicode="&#59213;" d="M893.44 870.4H130.56a114.688 114.688 0 0 1-102.4-117.248v-738.304a114.688 114.688 0 0 1 102.4-117.248h762.88a114.688 114.688 0 0 1 104.96 117.248V753.152A114.688 114.688 0 0 1 893.44 870.4zM147.456 797.696h729.088c26.624 0 47.616-34.304 48.64-74.752v-168.448H98.816V722.944c3.584 40.448 22.016 70.656 48.64 74.752z m729.088-827.392H147.456a51.2 51.2 0 0 0-48.64 48.64v460.8h826.368v-460.8a51.2 51.2 0 0 0-48.64-48.64zM835.584 211.96799999999996h-108.032l-83.968 153.6A35.328 35.328 0 0 1 614.4 384a30.208 30.208 0 0 1-27.648-19.968l-95.744-222.208-130.048 135.168a28.16 28.16 0 0 1-22.528 9.216 29.696 29.696 0 0 1-22.528-10.752l-139.264-170.496a29.696 29.696 0 0 1 6.144-39.936 29.184 29.184 0 0 1 39.936 0l120.32 146.432 140.288-146.432a28.672 28.672 0 0 1 28.16-8.192 30.208 30.208 0 0 1 22.528 18.944l86.016 192.512 59.904-98.816a30.72 30.72 0 0 1 27.648-18.944h132.096A30.72 30.72 0 0 1 870.4 179.20000000000005a30.208 30.208 0 0 1-30.208 30.208z"  horiz-adv-x="1024" />

    
    <glyph glyph-name="ziyuan19" unicode="&#59214;" d="M998.4 507.392V870.4h-370.688v-145.408h-189.44v-292.352H326.656V565.248H25.6v-362.496h301.056V332.79999999999995h111.616v-292.352h189.44v-142.848h370.688v363.008h-370.688v-145.408H512V652.8h115.712v-145.408z m-296.448 290.304h222.208v-217.6h-222.208zM252.928 274.94399999999996H102.4V493.056h153.6z m449.024-87.04h222.208v-217.6h-222.208z"  horiz-adv-x="1024" />

    
    <glyph glyph-name="ziyuan20" unicode="&#59215;" d="M817.737143-91.42857100000003H206.262857A169.691429 169.691429 0 0 0 36.571429 78.26285700000005V689.7371430000001A169.691429 169.691429 0 0 0 206.262857 859.428571h611.474286a169.691429 169.691429 0 0 0 169.691428-169.691428v-611.474286a169.691429 169.691429 0 0 0-169.691428-169.691428zM206.262857 791.405714a101.668571 101.668571 0 0 1-101.668571-101.668571v-611.474286a101.668571 101.668571 0 0 1 101.668571-101.668571h611.474286a101.668571 101.668571 0 0 1 101.668571 101.668571V689.7371430000001a101.668571 101.668571 0 0 1-101.668571 101.668571z"  horiz-adv-x="1024" />

    
    <glyph glyph-name="ziyuan21" unicode="&#59216;" d="M851.382857 859.428571H172.617143A136.777143 136.777143 0 0 1 36.571429 722.651429v-677.302858a136.777143 136.777143 0 0 1 136.045714-136.777142h678.765714a136.777143 136.777143 0 0 1 136.045714 136.777142V722.651429A136.777143 136.777143 0 0 1 851.382857 859.428571zM471.04 164.571429l-82.651429-87.771429L302.811429 164.571429 133.851429 332.8 219.428571 417.645714l167.497143-170.422857 381.805715 384.731429 84.114285-84.845715z"  horiz-adv-x="1024" />

    
    <glyph glyph-name="ziyuan22" unicode="&#59217;" d="M851.382857 859.428571H172.617143A136.045714 136.045714 0 0 1 36.571429 723.3828570000001v-678.765714a136.045714 136.045714 0 0 1 136.045714-136.045714h678.765714a136.045714 136.045714 0 0 1 136.045714 136.045714V723.3828570000001A136.045714 136.045714 0 0 1 851.382857 859.428571z m-68.022857-512H545.645714v-237.714285h-67.291428V350.354286H240.64v67.291428h237.714286V655.36h67.291428v-237.714286h237.714286z"  horiz-adv-x="1024" />

    
    <glyph glyph-name="ziyuan23" unicode="&#59218;" d="M851.382857 859.428571H172.617143A136.045714 136.045714 0 0 1 36.571429 723.3828570000001v-678.765714a136.045714 136.045714 0 0 1 136.045714-136.045714h678.765714a136.045714 136.045714 0 0 1 136.045714 136.045714V723.3828570000001A136.045714 136.045714 0 0 1 851.382857 859.428571z m-68.022857-512H240.64v70.217143h542.72z"  horiz-adv-x="1024" />

    
    <glyph glyph-name="ziyuan16" unicode="&#59211;" d="M426.666667-42.66666699999996H85.333333V298.66666699999996h341.333334z m-256 85.333334h170.666666V213.33333300000004H170.666667zM938.666667-42.66666699999996H597.333333V298.66666699999996h341.333334z m-256 85.333334h170.666666V213.33333300000004H682.666667zM426.666667 469.333333H85.333333V810.666667h341.333334zM170.666667 554.666667h170.666666V725.333333H170.666667zM938.666667 469.333333H597.333333V810.666667h341.333334zM682.666667 554.666667h170.666666V725.333333H682.666667z"  horiz-adv-x="1024" />

    
    <glyph glyph-name="ziyuan13" unicode="&#59221;" d="M402.17 870.4H88.36A62.79 62.79 0 0 1 25.6 807.64v-313.81a62.79 62.79 0 0 1 62.76-62.76h313.81a62.79 62.79 0 0 1 62.76 62.76V807.64a62.79 62.79 0 0 1-62.76 62.76z m533.47 0h-313.8a62.77 62.77 0 0 1-62.77-62.76v-313.81a62.79 62.79 0 0 1 62.77-62.76h313.8a62.76 62.76 0 0 1 62.76 62.76V807.64a62.76 62.76 0 0 1-62.76 62.76zM402.17 336.92999999999995H88.36a62.77 62.77 0 0 1-62.76-62.77v-313.8a62.78 62.78 0 0 1 62.76-62.76h313.81a62.76 62.76 0 0 1 62.76 62.76v313.8a62.77 62.77 0 0 1-62.76 62.77z m533.47 0h-313.8a62.75 62.75 0 0 1-62.77-62.77v-313.8a62.78 62.78 0 0 1 62.77-62.76h313.8a62.74 62.74 0 0 1 62.76 62.76v313.8a62.74 62.74 0 0 1-62.76 62.77z"  horiz-adv-x="1024" />

    
    <glyph glyph-name="ziyuan15" unicode="&#59225;" d="M73.142857 859.428571v-950.857142h877.714286V859.428571z m826.514286-47.542857v-160.182857H124.342857V811.885714zM124.342857-43.885714V603.428571h775.314286v-647.314285zM256 309.394286h146.285714v-68.022857h-146.285714zM256 512.731429h146.285714v-68.022858h-146.285714zM621.714286 512.731429h146.285714v-68.022858h-146.285714zM621.714286 309.394286h146.285714v-68.022857h-146.285714zM256 105.325714h146.285714v-68.022857h-146.285714zM621.714286 105.325714h146.285714v-68.022857h-146.285714z"  horiz-adv-x="1024" />

    
    <glyph glyph-name="ziyuan14" unicode="&#59222;" d="M949.76-102.4H366.08a48.64 48.64 0 0 0-48.64 48.64v97.28a48.64 48.64 0 0 0 48.64 48.64h583.68a48.64 48.64 0 0 0 48.64-48.64v-97.28a48.64 48.64 0 0 0-48.64-48.64z m0 389.12H366.08a48.64 48.64 0 0 0-48.64 48.64v97.28a48.64 48.64 0 0 0 48.64 48.64h583.68a48.64 48.64 0 0 0 48.64-48.64v-97.28a48.64 48.64 0 0 0-48.64-48.64z m0 389.12H366.08a48.64 48.64 0 0 0-48.64 48.64V821.76a48.64 48.64 0 0 0 48.64 48.64h583.68a48.64 48.64 0 0 0 48.64-48.64v-97.28a48.64 48.64 0 0 0-48.64-48.64zM171.52-102.4H74.24a48.64 48.64 0 0 0-48.64 48.64v97.28a48.64 48.64 0 0 0 48.64 48.64h97.28a48.64 48.64 0 0 0 48.64-48.64v-97.28a48.64 48.64 0 0 0-48.64-48.64z m0 389.12H74.24a48.64 48.64 0 0 0-48.64 48.64v97.28a48.64 48.64 0 0 0 48.64 48.64h97.28a48.64 48.64 0 0 0 48.64-48.64v-97.28a48.64 48.64 0 0 0-48.64-48.64z m0 389.12H74.24a48.64 48.64 0 0 0-48.64 48.64V821.76A48.64 48.64 0 0 0 74.24 870.4h97.28a48.64 48.64 0 0 0 48.64-48.64v-97.28a48.64 48.64 0 0 0-48.64-48.64z"  horiz-adv-x="1024" />

    
    <glyph glyph-name="ziyuan17" unicode="&#59219;" d="M92.16 682.666667h498.346667A46.08 46.08 0 0 1 640 725.333333a46.08 46.08 0 0 1-49.493333 42.666667H92.16A46.08 46.08 0 0 1 42.666667 725.333333a46.08 46.08 0 0 1 49.493333-42.666666zM426.666667 426.666667H85.333333a42.666667 42.666667 0 1 1 0-85.333334h341.333334a42.666667 42.666667 0 1 1 0 85.333334zM426.666667 85.333333H85.333333a42.666667 42.666667 0 1 1 0-85.333333h341.333334a42.666667 42.666667 0 1 1 0 85.333333zM965.973333 298.666667a50.346667 50.346667 0 0 1-72.533333 0L778.24 182.613333V715.093333a51.2 51.2 0 1 1-102.4 0v-539.306666L557.226667 298.666667a50.346667 50.346667 0 0 1-72.533334 0 52.906667 52.906667 0 0 1 0-74.24l202.24-207.36a51.2 51.2 0 0 1 36.693334-15.36 49.493333 49.493333 0 0 1 35.84 15.36l206.506666 210.773333a52.906667 52.906667 0 0 1 0 70.826667z"  horiz-adv-x="1024" />

    
    <glyph glyph-name="picture" unicode="&#59220;" d="M746.29 464.93A94.32 94.32 0 1 1 652 559.25a94.42 94.42 0 0 1 94.29-94.32z m0 134.73a40.42 40.42 0 1 0-40.43-40.41 40.46 40.46 0 0 0 40.43 40.41zM943.16 761.26H80.84A53.89 53.89 0 0 1 27 707.37v-646.74a53.89 53.89 0 0 1 53.89-53.89h862.27a53.89 53.89 0 0 1 53.89 53.89V707.37a53.89 53.89 0 0 1-53.89 53.89z m0-53.89v-529L727.72 393.82c-30.55 30.55-83.8 30.55-114.33 0l-39.94-39.95-142.57 142.56c-30.55 30.56-83.8 30.56-114.33 0L80.84 260.74V707.37zM80.84 60.63V184.72c0.18 0.17 0.41 0.21 0.58 0.39l273.25 273.22c10.16 10.18 27.91 10.18 38.09 0l325.63-325.62a26.95 26.95 0 0 1 38.11 38.11l-145 144.94 40 40c10.16 10.18 27.91 10.18 38.1 0l253.56-253.59v-41.54z"  horiz-adv-x="1024" />

    
    <glyph glyph-name="picture1" unicode="&#59226;" d="M629.63 468.2a77.92 77.92 0 1 1-77.91 77.91 77.91 77.91 0 0 1 77.91-77.91z m0 111.31a33.4 33.4 0 1 0-33.39-33.4 33.39 33.39 0 0 0 33.39 33.4zM810.43 411.1c97.94 0 178.08-80.1 178.08-178.1s-80.14-178.07-178.08-178.07S632.34 135.07 632.34 233s80.14 178.1 178.09 178.1z m-1.49-51.94c-13 0-23.74-11.64-23.74-25.61v-116.39c0-14 10.79-25.61 23.74-25.61s23.75 11.64 23.75 25.61V333.55c0 13.97-10.8 25.61-23.75 25.61z m0-188.56c-6.47 0-11.87-2.33-17.27-5.82q-6.46-7-6.47-17.46c0-14 10.79-25.61 23.74-25.61a22.88 22.88 0 0 1 16.19 7q6.48 7 6.48 17.46c0 5.81-2.16 12.8-6.48 17.45a21.15 21.15 0 0 1-16.19 6.98zM611.33 134.29H80v102.4l226.18 226.17a22.27 22.27 0 0 0 31.61 0l251.12-251.33c-0.68 7.08-1.09 14.24-1.09 21.49a221.23 221.23 0 0 0 3.65 38.93l-73.14 73.15 33.16 32.9a22.25 22.25 0 0 0 31.39 0l34.65-34.64A223.91 223.91 0 0 0 643.91 380l-29.64 29.65a68.36 68.36 0 0 1-94.61 0l-32.94-32.95L369.4 494.25a68.12 68.12 0 0 1-94.39 0L80 299.69V668.55h712.36v-213.84c6 0.48 12 0.92 18.07 0.92a222.23 222.23 0 0 0 26.45-1.74V668.55a44.52 44.52 0 0 1-44.52 44.52H80a44.52 44.52 0 0 1-44.52-44.52v-534.26A44.52 44.52 0 0 1 80 89.77h560.5a223.43 223.43 0 0 0-29.17 44.52z"  horiz-adv-x="1024" />

    
    <glyph glyph-name="yab_yuancheng" unicode="&#59223;" d="M473.59 566.32h-51.2v-153.6h51.2v153.6zM243.19 281.6V486.4c0 112.93 91.87 204.8 204.8 204.8s204.8-91.87 204.8-204.8V384H704V486.4c0 140.8-115.2 256-256 256s-256-115.2-256-256v-204.8c0-140.8 115.2-256 256-256v51.2c-112.94 0-204.81 91.87-204.81 204.8zM611.43 142.55h220.58v-51.2H611.43v51.2zM627.21 25.6l-102.4 116.95h102.4V25.6zM745.38 215.85H524.81v51.2h220.57v-51.2zM729.61 332.8l102.4-116.95h-102.4V332.8z"  horiz-adv-x="1024" />

    
    <glyph glyph-name="yab_bendi" unicode="&#59224;" d="M537.6 566.32h-51.2v-153.6h51.2v153.6zM512 742.4c-140.8 0-256-115.2-256-256v-204.8c0-140.8 115.2-256 256-256s256 115.2 256 256V486.4c0 140.8-115.2 256-256 256z m204.8-460.8c0-112.93-91.87-204.8-204.8-204.8s-204.8 91.87-204.8 204.8V486.4c0 112.93 91.87 204.8 204.8 204.8s204.8-91.87 204.8-204.8v-204.8z"  horiz-adv-x="1024" />

    
    <glyph glyph-name="h5_monitor_user" unicode="&#59235;" d="M744.47 274.79999999999995V231C818 220.66999999999996 890.13 203.14 960 177v-134.33h-87.53V0h130.2V206.11a1070.2 1070.2 0 0 1-258.2 68.69zM426.33 183.30999999999995c124.89 0 246.87-24.46 363-72.75V0H64V111a940 940 0 0 0 362.06 72.32h0.27m0 42.67h-0.27C283 226 146.33 195 21.33 139v-181.67H832V138.59000000000003C706.59 194.89 569.79 226 426.33 226zM593.33 768v-187.8c0-111.48-67.92-210.86-166.66-246.25C327.92 369.34000000000003 260 468.72 260 580.2V768h333.33M636 810.66H217.33V580.2c0-138.55 88.61-255.21 209.34-291.13C547.39 325 636 441.65 636 580.2V810.66zM668.35 769.47v-42.67h94.32v-165.15c0-98.43-63.57-186.32-156-217.85a203.68 203.68 0 0 0-27.8 12.2 303.24 303.24 0 0 0-34.55-29.42c19.51-11.42 40.09-21.21 62.32-27.49 114.59 32.39 198.69 137.59 198.69 262.52V769.47z"  horiz-adv-x="1024" />

    
    <glyph glyph-name="yab_h5_position" unicode="&#59236;" d="M1024 420.57h-38.42c-17.81 233.32-203.69 419.2-437 437V896h-73.15v-38.41c-233.32-17.82-419.2-203.7-437-437H0v-73.14h38.42c17.81-233.31 203.69-419.2 437-437V-128h73.14v38.43c233.32 17.8 419.2 203.69 437 437H1024z m-475.43-437V173.71000000000004h-73.14v-190.14C282.77 1 129 154.76999999999998 111.57 347.42999999999995h190.14v73.14H111.57C129 613.23 282.77 767 475.43 784.44v-190.15h73.14V784.44C741.23 767 895 613.23 912.43 420.57H722.29v-73.14h190.14C895 154.76999999999998 741.23 1 548.57-16.42999999999995zM512 384m-73.14 0a73.14 73.14 0 1 1 146.28 0 73.14 73.14 0 1 1-146.28 0Z"  horiz-adv-x="1024" />

    
    <glyph glyph-name="h5_monitor_ops" unicode="&#59237;" d="M647.4 810.67l205.93-209.46v-643.88H170.67V810.67H647.4m17.89 42.66H128v-938.66h768v704L665.29 853.33zM853.33 597.3299999999999H640V810.67h42.67V640h170.66v-42.67zM298.67 115.80999999999995v42.67h426.67v-42.67zM298.66 243.80999999999995v42.67h341.33v-42.67zM298.67 371.79999999999995v42.67h256v-42.67z"  horiz-adv-x="1024" />

    
    <glyph glyph-name="h5_yab_file_transfer" unicode="&#59238;" d="M647.4 810.67l205.93-209.46v-643.88H170.67V810.67H647.4m17.89 42.66H128v-938.66h768v704L665.29 853.33zM853.33 597.3299999999999H640V810.67h42.67V640h170.66v-42.67zM554.67 106.66999999999996v128h128l-128-128zM554.67 490.67h42.67v-341.33h-42.67zM469.33 490.67v-128h-128l128 128zM469.33 106.66999999999996h-42.67V448h42.67z"  horiz-adv-x="1024" />

    
    </font>
</defs>
</svg>
